<svg xmlns="http://www.w3.org/2000/svg" viewBox="0 0 487.37 214.7"><defs><style>.cls-1{fill:#f9eeea;}.cls-2{fill:#fff;}.cls-3{fill:#f1f2f2;}.cls-4,.cls-47{fill:#b366a9;}.cls-5{fill:#d3a2ca;}.cls-6{fill:#e7c5de;}.cls-7{fill:#9e4198;}.cls-8{fill:#f6e0ed;}.cls-9{fill:#8e3592;}.cls-10{fill:#602164;}.cls-11,.cls-37{fill:#3a1b50;}.cls-12{fill:#72226b;}.cls-13{fill:#f89c70;}.cls-14{fill:#f47920;}.cls-15,.cls-16{fill:#cc6127;}.cls-16{stroke:#cc6127;}.cls-16,.cls-37{stroke-miterlimit:10;}.cls-17{fill:#f6862d;}.cls-18{fill:#7f4083;}.cls-19{fill:#301044;}.cls-20{fill:#6b1d64;}.cls-21{fill:#511654;}.cls-22{fill:#8a3685;}.cls-23{fill:#d0b2c9;}.cls-24{fill:#dccad6;}.cls-25{fill:#9b5893;}.cls-26{fill:#b68cb0;}.cls-27{fill:#f47c20;}.cls-28{fill:#f79238;}.cls-29{fill:#f9a563;}.cls-30{fill:#f26a21;}.cls-31{fill:#fbba87;}.cls-32{fill:#d75a26;}.cls-33{fill:#8e3e1e;}.cls-34{fill:#693113;}.cls-35{fill:#b64d26;}.cls-36{fill:#e16025;}.cls-37{stroke:#3a1b50;}.cls-38{fill:#cc5624;}.cls-39{fill:#5e2a0c;}.cls-40{fill:#ab4822;}.cls-41{fill:#84391a;}.cls-42{fill:#e66420;}.cls-43{fill:#ec9d5e;}.cls-44{fill:#eeb180;}.cls-45{fill:#e7761e;}.cls-46{fill:#ea8a35;}.cls-47{opacity:0.52;}</style></defs><title>better_weather</title><g id="Layer_2" data-name="Layer 2"><g id="sun"><path class="cls-1" d="M428.72,19.34c110.48,29.31-3.57,83.92,43.84,119,48.08,35.59-22.51,101-188.62,59.09C148.35,163.18-35.22,238.12,5.86,131.76,19.66,96,52.18,26.55,178.23,32.93,324.16,40.31,333.55-5.9,428.72,19.34Z"/><path class="cls-2" d="M226.72,170.81c1.13-2.76,4.38-4.05,7.25-3.46-.75-5.28,11.76-15.48,19.91-3.63,5.47-3,9.95,1.69,9.7,4,3.32,1.56,4.47,5.23,3.63,6.24,3.2,0,6.32,4.89,1.68,7.09,1.23,3.78-3.57,6.69-9.44,5.07-4.2,3.3-9.77.67-10.25-.35-1.48,1-6.52.74-7.13.07-1.12,1.58-7.48,1.93-9.67-.34-3.19,1.29-10.73-1.06-10-6.26C218.32,178.07,219.9,168.38,226.72,170.81Z"/><path class="cls-3" d="M256.25,168.91c6.15-2.66,11.25,1.38,11,5a1.3,1.3,0,0,0,.25-.66c.37-2-1.88-4.84-3.88-5.58A7.39,7.39,0,0,0,256.25,168.91Z"/><path class="cls-3" d="M249.63,159.57c-4.28-2.43-12.71-.2-14.65,6.87a4.32,4.32,0,0,0-.12,1.1l-.94-.19C232.92,163.88,241.33,154.75,249.63,159.57Z"/><path class="cls-3" d="M250.48,167.88c2.56-3,8.53-4.68,11.17-.66,1.09,1.65,1.93.73,1.93.47,0-3.92-5.8-6.46-9.7-4-1.67,1.07-2.14,1.79-3.7,3.95Z"/><path class="cls-4" d="M282.83,26.75c28.14,14.84,26.95,61.63,5.4,93.87-5,7.43-12,13.76-18,19.45l0,.05c-1.29-.28-2.63-.54-4-.79C278.59,118.57,294.81,58.91,282.83,26.75Z"/><path class="cls-5" d="M282.83,26.75c40.52,16,48.09,54,24.75,84.58-8.54,11.2-21.15,20.1-32.69,29.91-1.46-.39-3-.77-4.71-1.12l0-.05c6-5.69,13.05-12,18-19.45C309.78,88.38,311,41.59,282.83,26.75Z"/><path class="cls-6" d="M282.83,26.75C341.8,41,341.76,89,311.28,118.26c-9.84,9.44-22.06,17.46-32.26,24.21-1.22-.42-2.61-.83-4.13-1.23,11.54-9.81,24.15-18.71,32.69-29.91C330.92,80.7,323.35,42.78,282.83,26.75Z"/><path class="cls-7" d="M282.83,26.75c12,32.16-4.24,91.82-16.66,112.58-1.9-.34-3.86-.65-5.84-.91C255.7,114.68,260.65,52.94,282.83,26.75Z"/><path class="cls-8" d="M282.83,26.75c41.93,7.29,56.9,31.7,51.58,60.52s-48.34,55-52.32,56.38a29.43,29.43,0,0,0-3.07-1.18c10.2-6.75,22.42-14.77,32.26-24.21C341.76,89,341.8,41,282.83,26.75Z"/><path class="cls-9" d="M282.83,26.75c-22.18,26.19-27.13,87.93-22.5,111.67-1.26-.16-2.52-.31-3.79-.44-3.36-7.25-7.36-13.67-9.54-21.21C235.94,78.4,250.43,31.28,282.83,26.75Z"/><path class="cls-10" d="M282.83,26.75c-43.93-.62-62.18,38.09-52,71.16,4.16,13.46,13.74,26.59,21.27,39.73-1.47-.08-2.91-.12-4.3-.12-7.31-9.81-16.75-22.13-22.8-34.35C206.29,65.31,226.12,20.48,282.83,26.75Z"/><path class="cls-11" d="M213.42,67.53c4.48-27.25,25.8-48.36,69.41-40.78-56.71-6.27-76.54,38.56-57.8,76.42,6.05,12.22,15.49,24.54,22.8,34.35-1.21,0-2.38,0-3.52.09C241.34,134.58,208.94,94.78,213.42,67.53Z"/><path class="cls-12" d="M230.86,97.91c-10.21-33.07,8-71.78,52-71.16-32.4,4.53-46.89,51.65-35.83,90,2.18,7.54,6.18,14,9.54,21.21-1.48-.14-3-.26-4.41-.34C244.6,124.5,235,111.37,230.86,97.91Z"/><path class="cls-13" d="M263,162.06l-.07,0a.19.19,0,0,1-.06-.25l6.35-11.74a.19.19,0,0,1,.26-.07.18.18,0,0,1,.07.25l-5.31,9.82,7.84-9.93a.19.19,0,0,1,.29.23L263.17,162A.17.17,0,0,1,263,162.06Z"/><path class="cls-13" d="M263,162.06a.16.16,0,0,1-.1-.05.19.19,0,0,1,0-.26l12-11.86a.18.18,0,0,1,.26,0,.19.19,0,0,1,0,.26l-12,11.86A.18.18,0,0,1,263,162.06Z"/><path class="cls-13" d="M255.71,160.79a.19.19,0,0,1-.14-.11l-6.43-15.09a.19.19,0,0,1,.1-.25.2.2,0,0,1,.25.1l5.6,13.15-2.68-11.69a.2.2,0,0,1,.15-.23.18.18,0,0,1,.22.15l3.15,13.74a.18.18,0,0,1-.13.22A.14.14,0,0,1,255.71,160.79Z"/><path class="cls-13" d="M255.71,160.79a.17.17,0,0,1-.15-.17l-1-13a.19.19,0,0,1,.38,0l1,13a.18.18,0,0,1-.17.2Z"/><path class="cls-10" d="M249.94,170.71a.19.19,0,0,1-.1,0,.29.29,0,0,1-.1-.39l5.76-9.83a.28.28,0,0,1,.29-.13l7.29,1.27a.29.29,0,0,1,.22.21l2.92,11.35a.28.28,0,0,1-.2.34.27.27,0,0,1-.34-.2l-2.88-11.17-6.91-1.21-5.66,9.66A.28.28,0,0,1,249.94,170.71Z"/><path class="cls-14" d="M288.28,28.15a36.59,36.59,0,0,1-11.39-2c-2.07-.87,2.47-1.32,6-.77S291.43,28.26,288.28,28.15Z"/><rect class="cls-15" x="247.93" y="171.82" width="19.86" height="0.78" rx="0.39" transform="translate(33.53 -41.85) rotate(9.92)"/><path class="cls-16" d="M275.06,150c-.31,1.38-25.08-2.85-25.75-4.5s10.59-.85,13.33-.37C270,146.44,275.29,149,275.06,150Z"/><path class="cls-17" d="M264.7,173.8,248.84,171l-1.92,11a1.06,1.06,0,0,0,.86,1.23l3.89.68C258.58,184.12,263.06,180.1,264.7,173.8Z"/><path class="cls-14" d="M264.7,173.8c-1.64,6.3-6.12,10.32-13,10.1L263.6,186a1.07,1.07,0,0,0,1.23-.86l1.92-11Z"/><path class="cls-18" d="M260.76,138.44c-1.38-.19-2.74-.35-4.07-.49-.32,1.56.47,5,1.13,7.75.85.09,1.72.2,2.59.32C260.38,145.35,260.15,140.45,260.76,138.44Z"/><path class="cls-19" d="M244.31,137.61a34.54,34.54,0,0,0,4.84,7.94,26.84,26.84,0,0,1,2.9-.17c-2.7-4.35-3.15-5-4.27-8A26.48,26.48,0,0,0,244.31,137.61Z"/><path class="cls-20" d="M256.69,138c-1.49-.16-2.94-.28-4.3-.37a19.49,19.49,0,0,0,2.79,7.9c.85.06,1.73.13,2.64.22C257.16,143,256.37,139.51,256.69,138Z"/><path class="cls-21" d="M252.39,137.58c-1.68-.11-3.23-.17-4.61-.16,1.12,2.94,1.57,3.61,4.27,8,1,0,2,0,3.13.1A19.49,19.49,0,0,1,252.39,137.58Z"/><path class="cls-22" d="M265.81,139.21c-1.67-.29-3.37-.55-5.05-.77-.61,2-.38,6.91-.35,7.58,1.15.15,2.3.34,3.44.55A23.08,23.08,0,0,0,265.81,139.21Z"/><path class="cls-23" d="M278.91,142.35c-1.16-.4-2.45-.78-3.83-1.15-.75,3.32-4,6.49-4.52,7a28.68,28.68,0,0,1,3.14,1.16C274.32,148.89,278.41,145.8,278.91,142.35Z"/><path class="cls-24" d="M282.09,143.65a27.35,27.35,0,0,0-3.18-1.3c-.5,3.45-4.59,6.54-5.21,7,.49.22.95.45,1.36.68C275.06,150,281.31,145.37,282.09,143.65Z"/><path class="cls-25" d="M270.19,140.05c-1.42-.3-2.89-.58-4.38-.84a23.08,23.08,0,0,1-2,7.36c1.11.2,2.21.43,3.27.68C267.5,146.7,269.85,143.16,270.19,140.05Z"/><path class="cls-26" d="M270.19,140.05c-.34,3.11-2.69,6.65-3.07,7.2,1.21.28,2.37.59,3.44.93.52-.49,3.77-3.66,4.52-7C273.55,140.79,271.9,140.41,270.19,140.05Z"/><circle class="cls-10" cx="265.95" cy="74.67" r="0.28"/><path class="cls-2" d="M302.18,153.45c1.31-3.19,5.07-4.68,8.38-4-.87-6.09,13.58-17.86,23-4.18,6.32-3.48,11.5,1.94,11.2,4.57,3.84,1.81,5.17,6,4.19,7.21,3.7,0,7.31,5.65,1.95,8.18,1.42,4.37-4.13,7.73-10.91,5.86-4.84,3.81-11.28.78-11.82-.41-1.72,1.13-7.53.86-8.24.08-1.29,1.84-8.64,2.23-11.17-.38-3.67,1.48-12.38-1.23-11.48-7.23C292.49,161.83,294.32,150.64,302.18,153.45Z"/><path class="cls-3" d="M336.28,151.25c7.11-3.07,13,1.6,12.65,5.8a1.4,1.4,0,0,0,.29-.76c.43-2.27-2.17-5.58-4.48-6.45A8.56,8.56,0,0,0,336.28,151.25Z"/><path class="cls-3" d="M328.64,140.48c-4.94-2.81-14.68-.23-16.91,7.92a4.71,4.71,0,0,0-.14,1.27l-1.08-.21C309.34,145.45,319.06,134.91,328.64,140.48Z"/><path class="cls-3" d="M329.62,150.07c3-3.49,9.84-5.41,12.9-.77,1.26,1.91,2.23.85,2.22.54,0-4.52-6.69-7.46-11.2-4.57-1.92,1.23-2.46,2-4.27,4.56Z"/><path class="cls-2" d="M313.75,158.09c1.12,2.4,6.37,1.8,8.21-.61,6.09,2.3,10.77-.75,10.79-3.42.11-.57-.17-2.85-2-3.33-.3-2.44-3.75-4.37-8.44-2.32-4.48,0-6.72,1.41-7.35,4.14a3.76,3.76,0,0,0-4,2.4A2.23,2.23,0,0,0,313.75,158.09Z"/><path class="cls-3" d="M332.75,154.06c-.05-2-.71-3.08-2-3.33,0-1.47-2-3.68-5.63-3.13,1.52-.07,3.36.36,3.49,1.89a2,2,0,0,1,1.65,2.48A2.31,2.31,0,0,1,332.75,154.06Z"/><path class="cls-3" d="M311,155a2.41,2.41,0,0,1,.54-1.14,3.1,3.1,0,0,1,1-.81,3.63,3.63,0,0,1,1.2-.41,5.85,5.85,0,0,1,1.25-.06h0a6.6,6.6,0,0,1,.51-1.34,4.14,4.14,0,0,1,.88-1.16,4.93,4.93,0,0,1,1.21-.81,5.89,5.89,0,0,1,1.36-.46l0,0c-.42.23-.83.45-1.23.7a8,8,0,0,0-1.1.81,6.87,6.87,0,0,0-.94,1,5.41,5.41,0,0,0-.69,1.22h0a5.3,5.3,0,0,0-1.2.22,6.06,6.06,0,0,0-1.11.47,4.19,4.19,0,0,0-1,.71,3.44,3.44,0,0,0-.67,1Z"/><path class="cls-12" d="M358.64,19.22c1.73-4.21,6.69-6.17,11.06-5.27-1.15-8,17.93-23.59,30.34-5.53,8.34-4.6,15.17,2.57,14.78,6,5.06,2.39,6.82,8,5.53,9.51,4.89,0,9.64,7.46,2.57,10.8,1.87,5.77-5.45,10.2-14.39,7.73-6.4,5-14.89,1-15.61-.53-2.27,1.49-9.94,1.13-10.88.1-1.71,2.42-11.4,2.94-14.74-.51-4.85,2-16.35-1.62-15.16-9.54C345.85,30.28,348.26,15.51,358.64,19.22Z"/><path class="cls-10" d="M403.65,16.32c9.38-4.05,17.15,2.1,16.7,7.65a1.78,1.78,0,0,0,.38-1c.57-3-2.86-7.37-5.91-8.51A11.29,11.29,0,0,0,403.65,16.32Z"/><path class="cls-10" d="M393.57,2.1c-6.53-3.71-19.38-.31-22.33,10.46a6.39,6.39,0,0,0-.18,1.67L369.63,14C368.1,8.66,380.92-5.25,393.57,2.1Z"/><path class="cls-10" d="M394.87,14.75c3.9-4.6,13-7.13,17-1,1.66,2.53,2.95,1.12,2.94.72,0-6-8.84-9.85-14.78-6-2.54,1.62-3.26,2.72-5.64,6Z"/><path class="cls-12" d="M373.91,25.34c1.48,3.17,8.4,2.39,10.84-.8,8,3,14.22-1,14.23-4.52.16-.74-.21-3.76-2.59-4.39-.4-3.22-4.95-5.77-11.13-3.06-5.92-.05-8.88,1.86-9.71,5.46a5,5,0,0,0-5.22,3.17A2.93,2.93,0,0,0,373.91,25.34Z"/><path class="cls-10" d="M399,20c-.06-2.66-.93-4.06-2.59-4.39,0-1.94-2.68-4.86-7.43-4.13,2-.09,4.43.47,4.6,2.49a2.67,2.67,0,0,1,2.19,3.28A3,3,0,0,1,399,20Z"/><path class="cls-10" d="M370.3,21.2a3,3,0,0,1,.71-1.51,4.49,4.49,0,0,1,1.3-1.07,5,5,0,0,1,1.59-.53,7,7,0,0,1,1.65-.08h0a9.42,9.42,0,0,1,.68-1.76,5.29,5.29,0,0,1,1.16-1.54A6.53,6.53,0,0,1,379,13.65a7.77,7.77,0,0,1,1.8-.6l0,.06c-.55.3-1.09.6-1.61.92a10.33,10.33,0,0,0-1.46,1.07,11.12,11.12,0,0,0-1.24,1.32,7.06,7.06,0,0,0-.9,1.61h0a7.58,7.58,0,0,0-1.59.3,8.21,8.21,0,0,0-1.46.62,5.31,5.31,0,0,0-1.26.94,4.11,4.11,0,0,0-.89,1.31Z"/><path class="cls-2" d="M241.81,176.07c1,2.07,5.52,1.56,7.12-.53,5.27,2,9.32-.65,9.33-3,.11-.49-.14-2.47-1.7-2.89-.26-2.11-3.25-3.78-7.3-2-3.89,0-5.83,1.23-6.37,3.58a3.27,3.27,0,0,0-3.43,2.09A1.93,1.93,0,0,0,241.81,176.07Z"/><path class="cls-3" d="M258.26,172.58c0-1.75-.61-2.67-1.7-2.89,0-1.27-1.76-3.19-4.87-2.7,1.32-.07,2.9.3,3,1.63a1.74,1.74,0,0,1,1.43,2.15A2,2,0,0,1,258.26,172.58Z"/><path class="cls-3" d="M239.44,173.35a2.15,2.15,0,0,1,.46-1,3,3,0,0,1,.86-.7,3,3,0,0,1,1-.36,5.69,5.69,0,0,1,1.09-.05h0a6.61,6.61,0,0,1,.45-1.16,3.36,3.36,0,0,1,.76-1,4.1,4.1,0,0,1,1-.7,4.44,4.44,0,0,1,1.18-.4v0c-.36.2-.72.39-1.06.6a7.1,7.1,0,0,0-1.77,1.57,4.57,4.57,0,0,0-.59,1.06h0a4.63,4.63,0,0,0-1,.19,5.77,5.77,0,0,0-1,.41,3.5,3.5,0,0,0-.82.61,2.86,2.86,0,0,0-.59.86Z"/><path class="cls-2" d="M287.21,75.82A6,6,0,0,1,294,72.61c-.7-4.91,10.94-14.4,18.52-3.38,5.09-2.8,9.26,1.57,9,3.69,3.09,1.46,4.16,4.86,3.38,5.81,3,0,5.88,4.55,1.57,6.59,1.14,3.52-3.33,6.22-8.79,4.72-3.9,3.07-9.09.62-9.53-.33-1.38.91-6.07.69-6.64.07-1,1.47-7,1.79-9-.32-3,1.2-10-1-9.26-5.82C279.4,82.58,280.87,73.56,287.21,75.82Z"/><path class="cls-3" d="M314.69,74.05c5.72-2.47,10.46,1.29,10.19,4.68a1.15,1.15,0,0,0,.23-.62c.35-1.82-1.75-4.5-3.61-5.19A6.87,6.87,0,0,0,314.69,74.05Z"/><path class="cls-3" d="M308.53,65.37c-4-2.26-11.83-.18-13.63,6.39a4.14,4.14,0,0,0-.11,1l-.87-.17C293,69.38,300.81,60.89,308.53,65.37Z"/><path class="cls-3" d="M309.32,73.1c2.38-2.81,7.93-4.36,10.39-.62,1,1.54,1.8.68,1.79.44,0-3.64-5.39-6-9-3.69-1.55,1-2,1.66-3.45,3.68Z"/><path class="cls-2" d="M296.53,79.56c.91,1.94,5.13,1.46,6.62-.49,4.9,1.86,8.67-.6,8.69-2.75.09-.46-.14-2.3-1.59-2.69-.24-2-3-3.52-6.79-1.87-3.62,0-5.42,1.14-5.93,3.34A3,3,0,0,0,294.34,77,1.79,1.79,0,0,0,296.53,79.56Z"/><path class="cls-3" d="M311.84,76.32c0-1.63-.57-2.48-1.59-2.69,0-1.18-1.63-3-4.53-2.51,1.22-.06,2.7.28,2.81,1.51a1.63,1.63,0,0,1,1.33,2A1.87,1.87,0,0,1,311.84,76.32Z"/><path class="cls-3" d="M294.33,77a2,2,0,0,1,.43-.92,2.75,2.75,0,0,1,.79-.65,3.1,3.1,0,0,1,1-.33,4.3,4.3,0,0,1,1,0h0a5.36,5.36,0,0,1,.41-1.07,3.28,3.28,0,0,1,.71-.94,3.92,3.92,0,0,1,1-.65,4.46,4.46,0,0,1,1.1-.37v0c-.33.19-.66.37-1,.57a5.72,5.72,0,0,0-1.64,1.46,4.3,4.3,0,0,0-.56,1h0a4.49,4.49,0,0,0-1,.18,4.67,4.67,0,0,0-.89.38,3.08,3.08,0,0,0-.77.57,2.31,2.31,0,0,0-.54.8Z"/><path class="cls-2" d="M31.23,161.33a5.73,5.73,0,0,1,6.48-3.09C37,153.53,48.22,144.41,55.5,155c4.89-2.69,8.89,1.51,8.67,3.54,3,1.4,4,4.68,3.24,5.58,2.86,0,5.65,4.37,1.5,6.33,1.1,3.38-3.19,6-8.44,4.53-3.75,3-8.73.61-9.15-.31-1.33.88-5.83.66-6.38.06-1,1.42-6.68,1.73-8.63-.3-2.85,1.15-9.59-.94-8.89-5.59C23.73,167.82,25.14,159.16,31.23,161.33Z"/><path class="cls-3" d="M57.62,159.63c5.49-2.37,10.05,1.24,9.79,4.49a1.12,1.12,0,0,0,.22-.59c.34-1.75-1.68-4.32-3.46-5A6.64,6.64,0,0,0,57.62,159.63Z"/><path class="cls-3" d="M51.7,151.3c-3.82-2.18-11.36-.18-13.08,6.13a3.43,3.43,0,0,0-.11,1l-.84-.17C36.77,155.15,44.29,147,51.7,151.3Z"/><path class="cls-3" d="M52.46,158.72c2.29-2.71,7.62-4.19,10-.6,1,1.48,1.73.66,1.73.42,0-3.49-5.19-5.77-8.67-3.54-1.49.95-1.91,1.6-3.31,3.53Z"/><path class="cls-2" d="M40.18,164.92c.87,1.86,4.93,1.4,6.36-.47,4.71,1.78,8.33-.58,8.34-2.64.09-.44-.13-2.21-1.52-2.58-.23-1.89-2.9-3.38-6.53-1.8-3.47,0-5.2,1.1-5.69,3.2a2.92,2.92,0,0,0-3.06,1.87A1.71,1.71,0,0,0,40.18,164.92Z"/><path class="cls-3" d="M54.88,161.81c0-1.57-.55-2.38-1.52-2.58,0-1.14-1.57-2.85-4.36-2.42,1.18-.06,2.6.28,2.7,1.46A1.56,1.56,0,0,1,53,160.19,1.79,1.79,0,0,1,54.88,161.81Z"/><path class="cls-3" d="M38.06,162.49a1.76,1.76,0,0,1,.42-.88,2.56,2.56,0,0,1,.76-.63,2.84,2.84,0,0,1,.93-.31,4.51,4.51,0,0,1,1,0h0a5,5,0,0,1,.4-1,2.86,2.86,0,0,1,.68-.9,3.82,3.82,0,0,1,.93-.63,4.47,4.47,0,0,1,1-.35l0,0c-.33.18-.64.35-1,.54a6.09,6.09,0,0,0-1.58,1.4,4.2,4.2,0,0,0-.53.95h0a3.64,3.64,0,0,0-.93.17,5,5,0,0,0-.86.36,3.31,3.31,0,0,0-.74.55,2.55,2.55,0,0,0-.52.77Z"/><path class="cls-12" d="M441.49,61c2.66,3.48,2.7,4.69,1.37,5.09C441.35,66.57,440.75,63.91,441.49,61Z"/><path class="cls-2" d="M140.15,96.81c1.31-3.18,5.06-4.67,8.37-4-.86-6.09,13.59-17.87,23-4.19,6.32-3.48,11.49,2,11.2,4.58,3.83,1.81,5.16,6,4.19,7.21,3.7,0,7.3,5.65,1.94,8.18,1.42,4.37-4.13,7.72-10.9,5.85-4.85,3.82-11.28.79-11.83-.4-1.71,1.13-7.53.86-8.24.08-1.29,1.83-8.64,2.23-11.16-.39-3.68,1.49-12.39-1.22-11.49-7.22C130.45,105.2,132.28,94,140.15,96.81Z"/><path class="cls-3" d="M174.25,94.62c7.1-3.07,13,1.59,12.65,5.8a1.4,1.4,0,0,0,.29-.76c.43-2.27-2.17-5.59-4.48-6.45A8.55,8.55,0,0,0,174.25,94.62Z"/><path class="cls-3" d="M166.61,83.84c-5-2.8-14.69-.23-16.92,7.93a5.15,5.15,0,0,0-.14,1.27l-1.08-.22C147.31,88.82,157,78.28,166.61,83.84Z"/><path class="cls-3" d="M167.59,93.43c2.95-3.49,9.84-5.4,12.89-.76,1.26,1.91,2.23.85,2.23.54,0-4.52-6.7-7.46-11.2-4.58-1.92,1.23-2.47,2.06-4.28,4.57Z"/><path class="cls-2" d="M151.71,101.46c1.13,2.4,6.37,1.8,8.22-.61,6.08,2.3,10.77-.75,10.78-3.42.12-.57-.17-2.85-2-3.33-.3-2.44-3.75-4.37-8.43-2.32-4.48,0-6.73,1.41-7.35,4.13a3.77,3.77,0,0,0-4,2.41A2.22,2.22,0,0,0,151.71,101.46Z"/><path class="cls-3" d="M170.71,97.43c-.05-2-.71-3.08-2-3.33,0-1.47-2-3.68-5.62-3.13,1.52-.07,3.35.36,3.48,1.89a2,2,0,0,1,1.66,2.48A2.31,2.31,0,0,1,170.71,97.43Z"/><path class="cls-3" d="M149,98.32a2.38,2.38,0,0,1,.53-1.15,3.67,3.67,0,0,1,1-.81,4,4,0,0,1,1.2-.4A5.33,5.33,0,0,1,153,95.9h0a6.64,6.64,0,0,1,.52-1.34,3.93,3.93,0,0,1,.87-1.16,5.12,5.12,0,0,1,1.21-.81,6.06,6.06,0,0,1,1.36-.46l0,0c-.42.23-.83.45-1.22.69a9.09,9.09,0,0,0-1.11.82,7.39,7.39,0,0,0-.93,1,5.41,5.41,0,0,0-.69,1.22h0a5.4,5.4,0,0,0-1.2.22,6.06,6.06,0,0,0-1.11.47,4.13,4.13,0,0,0-.95.71,3,3,0,0,0-.67,1Z"/><path class="cls-12" d="M472.65,64.19c2.65,3.48,2.69,4.69,1.36,5.09C472.5,69.73,471.9,67.07,472.65,64.19Z"/><path class="cls-12" d="M463.77,59.6c2.66,3.48,2.7,4.7,1.36,5.1C463.62,65.15,463,62.48,463.77,59.6Z"/><path class="cls-12" d="M440.14,54.39A6.25,6.25,0,0,1,447.21,51c-.73-5.14,11.46-15.08,19.39-3.54,5.34-2.93,9.7,1.65,9.45,3.87,3.24,1.52,4.36,5.09,3.54,6.08,3.12,0,6.16,4.76,1.64,6.9,1.2,3.69-3.48,6.52-9.2,4.94-4.09,3.22-9.52.66-10-.34-1.45.95-6.35.72-6.95.07-1.09,1.54-7.29,1.88-9.42-.33-3.1,1.25-10.45-1-9.69-6.1C432,61.46,433.51,52,440.14,54.39Z"/><path class="cls-10" d="M468.91,52.54c6-2.59,11,1.34,10.68,4.89a1.17,1.17,0,0,0,.24-.64c.37-1.92-1.83-4.72-3.78-5.44A7.21,7.21,0,0,0,468.91,52.54Z"/><path class="cls-10" d="M462.47,43.44c-4.17-2.36-12.39-.19-14.27,6.69a4.08,4.08,0,0,0-.12,1.07l-.91-.18C446.19,47.64,454.38,38.75,462.47,43.44Z"/><path class="cls-10" d="M463.3,51.54c2.49-2.95,8.3-4.57,10.87-.65,1.07,1.61,1.89.71,1.88.46,0-3.82-5.65-6.3-9.45-3.87-1.62,1-2.08,1.74-3.6,3.85Z"/><path class="cls-10" d="M465.93,54.9c0-1.7-.59-2.59-1.66-2.8,0-1.24-1.71-3.11-4.75-2.64,1.29-.06,2.83.3,2.94,1.59a1.69,1.69,0,0,1,1.4,2.09A2,2,0,0,1,465.93,54.9Z"/><path class="cls-10" d="M447.59,55.65a2,2,0,0,1,.46-1,2.73,2.73,0,0,1,.83-.68,3,3,0,0,1,1-.35,5.42,5.42,0,0,1,1.06,0h0a6.23,6.23,0,0,1,.43-1.13,3.72,3.72,0,0,1,.74-1,4.54,4.54,0,0,1,1-.68,4.88,4.88,0,0,1,1.15-.39v0c-.35.2-.69.38-1,.59a7,7,0,0,0-.93.69,6.32,6.32,0,0,0-.79.84,4.34,4.34,0,0,0-.58,1h0a4.37,4.37,0,0,0-1,.19,5.08,5.08,0,0,0-.93.39,3.7,3.7,0,0,0-.81.6,2.69,2.69,0,0,0-.56.84Z"/><polygon class="cls-5" points="446.04 79.95 452.73 70.72 449.95 70.65 453.49 65.29 450.65 65.22 454.38 59.91 449.96 59.79 446.01 66.74 448.98 66.82 446.38 72.34 449.25 72.42 446.04 79.95"/><path class="cls-12" d="M444.12,64.81c.91,3.22,7.57,3.55,10.37.92,7.12,4.1,13.57,1.25,14.14-2.08.26-.68.37-3.58-1.78-4.55.12-3.1-3.78-6.21-10-4.61-5.59-1-8.68.4-10,3.66a4.75,4.75,0,0,0-5.42,2.2A2.81,2.81,0,0,0,444.12,64.81Z"/><path class="cls-5" d="M358.11,42.81c2.22,2.91,2.25,3.92,1.14,4.25S357.49,45.22,358.11,42.81Z"/><path class="cls-5" d="M365.85,49.06C368.06,52,368.1,53,367,53.31S365.22,51.47,365.85,49.06Z"/><path class="cls-5" d="M361,56.08c2.21,2.91,2.25,3.92,1.13,4.25S360.39,58.49,361,56.08Z"/><path class="cls-5" d="M369.51,59.59c2.21,2.9,2.25,3.92,1.13,4.25S368.88,62,369.51,59.59Z"/><path class="cls-5" d="M365.36,68.7c2.21,2.9,2.24,3.91,1.13,4.25S364.73,71.1,365.36,68.7Z"/><path class="cls-5" d="M373.56,69.35c2.22,2.91,2.25,3.92,1.14,4.25S372.94,71.76,373.56,69.35Z"/><path class="cls-5" d="M382.83,49.39c2.21,2.9,2.25,3.91,1.13,4.25S382.2,51.79,382.83,49.39Z"/><path class="cls-5" d="M378,56.41c2.21,2.9,2.25,3.91,1.13,4.25S377.37,58.81,378,56.41Z"/><path class="cls-5" d="M386.49,59.91c2.21,2.9,2.25,3.92,1.13,4.25S385.86,62.31,386.49,59.91Z"/><path class="cls-5" d="M381.77,67.88c2.21,2.9,2.25,3.91,1.13,4.25S381.14,70.28,381.77,67.88Z"/><path class="cls-5" d="M374.23,45.55c2.22,2.9,2.25,3.92,1.14,4.25S373.61,48,374.23,45.55Z"/><path class="cls-5" d="M409.15,45.7c2.21,2.9,2.25,3.91,1.13,4.25S408.52,48.1,409.15,45.7Z"/><path class="cls-5" d="M400.44,48.71c2.21,2.91,2.25,3.92,1.13,4.25S399.81,51.12,400.44,48.71Z"/><path class="cls-5" d="M393.18,55.13c2.21,2.9,2.25,3.92,1.13,4.25S392.55,57.53,393.18,55.13Z"/><path class="cls-5" d="M403.82,59.59c2.21,2.9,2.24,3.92,1.13,4.25S403.19,62,403.82,59.59Z"/><path class="cls-5" d="M396.31,64.2c2.22,2.91,2.25,3.92,1.14,4.25S395.69,66.61,396.31,64.2Z"/><path class="cls-5" d="M389.84,45c2.22,2.9,2.25,3.92,1.14,4.25C389.72,49.59,389.22,47.36,389.84,45Z"/><path class="cls-5" d="M412.31,55.41c2.21,2.9,2.25,3.91,1.13,4.25S411.69,57.81,412.31,55.41Z"/><path class="cls-5" d="M422.4,58.24c2.22,2.9,2.25,3.91,1.14,4.25C422.28,62.86,421.78,60.64,422.4,58.24Z"/><path class="cls-5" d="M415.09,64.47c2.22,2.9,2.25,3.92,1.14,4.25C415,69.1,414.47,66.87,415.09,64.47Z"/><path class="cls-5" d="M418.71,48.28c2.21,2.91,2.25,3.92,1.13,4.25S418.08,50.69,418.71,48.28Z"/><path class="cls-2" d="M186.53,55c1.29-3.14,5-4.61,8.28-3.94-.86-6,13.42-17.65,22.71-4.14,6.24-3.44,11.35,1.93,11.06,4.52,3.79,1.79,5.1,6,4.14,7.12,3.66,0,7.22,5.59,1.93,8.09,1.4,4.32-4.09,7.63-10.78,5.78-4.79,3.77-11.15.77-11.69-.39-1.69,1.11-7.44.84-8.14.07-1.27,1.81-8.53,2.2-11-.38-3.63,1.47-12.24-1.21-11.34-7.14C177,63.27,178.76,52.21,186.53,55Z"/><path class="cls-3" d="M220.22,52.82c7-3,12.83,1.57,12.5,5.72a1.34,1.34,0,0,0,.29-.75c.42-2.24-2.15-5.51-4.43-6.37A8.45,8.45,0,0,0,220.22,52.82Z"/><path class="cls-3" d="M212.67,42.17c-4.88-2.77-14.5-.23-16.71,7.83a5,5,0,0,0-.14,1.25L194.75,51C193.61,47.09,203.2,36.67,212.67,42.17Z"/><path class="cls-3" d="M213.64,51.64c2.92-3.44,9.72-5.34,12.74-.75,1.25,1.89,2.21.83,2.2.53,0-4.46-6.62-7.37-11.06-4.52-1.9,1.22-2.44,2-4.23,4.51Z"/><path class="cls-2" d="M198,59.57c1.11,2.37,6.29,1.79,8.11-.6,6,2.27,10.64-.74,10.66-3.38.11-.56-.17-2.82-1.95-3.29-.29-2.41-3.7-4.32-8.33-2.29-4.43,0-6.64,1.39-7.27,4.08a3.72,3.72,0,0,0-3.9,2.38A2.2,2.2,0,0,0,198,59.57Z"/><path class="cls-3" d="M216.73,55.59c0-2-.7-3-1.95-3.29,0-1.45-2-3.64-5.56-3.09,1.51-.07,3.32.35,3.45,1.86a2,2,0,0,1,1.63,2.46A2.28,2.28,0,0,1,216.73,55.59Z"/><path class="cls-3" d="M195.26,56.47a2.3,2.3,0,0,1,.52-1.13,3.28,3.28,0,0,1,1-.8,3.64,3.64,0,0,1,1.19-.4,5.1,5.1,0,0,1,1.23-.06h0a7.06,7.06,0,0,1,.51-1.32,3.93,3.93,0,0,1,.87-1.15,4.78,4.78,0,0,1,1.19-.8,5.36,5.36,0,0,1,1.35-.45v0c-.41.23-.82.45-1.2.69a8,8,0,0,0-1.1.81,7.78,7.78,0,0,0-.92,1,5.53,5.53,0,0,0-.68,1.21h0a5.42,5.42,0,0,0-1.19.22,7,7,0,0,0-1.09.46,4.11,4.11,0,0,0-.94.7,3.21,3.21,0,0,0-.67,1Z"/><path class="cls-27" d="M408.09,72.61c23.9,7.71,29.34,44.25,17,72.26-2.85,6.46-7.47,12.34-11.37,17.58v0c-1,0-2.12-.06-3.22-.07C417.28,144.59,421.78,96,408.09,72.61Z"/><path class="cls-28" d="M408.09,72.61c33.69,7,44.73,35.41,30.75,62.41-5.11,9.87-13.71,18.5-21.35,27.7-1.19-.1-2.47-.18-3.82-.23v0c3.9-5.24,8.52-11.12,11.37-17.58C437.43,116.86,432,80.32,408.09,72.61Z"/><path class="cls-29" d="M408.09,72.61c47.8,3.08,54.3,40.4,34.57,67.29-6.37,8.68-14.78,16.58-21.79,23.21-1-.15-2.15-.28-3.38-.39,7.64-9.2,16.24-17.83,21.35-27.7C452.82,108,441.78,79.56,408.09,72.61Z"/><path class="cls-30" d="M408.09,72.61c13.69,23.38,9.19,72,2.36,89.81-1.52,0-3.09,0-4.67.09C399,144.68,394.4,96,408.09,72.61Z"/><path class="cls-31" d="M408.09,72.61c33.59,0,48.56,16.91,48.34,40s-30.11,49.37-33,51a24.64,24.64,0,0,0-2.54-.51c7-6.63,15.42-14.53,21.79-23.21C462.39,113,455.89,75.69,408.09,72.61Z"/><path class="cls-32" d="M408.09,72.61C394.4,96,399,144.68,405.78,162.51c-1,0-2,.1-3,.17-3.61-5.18-7.59-9.63-10.31-15.2C378.65,119.15,383.5,80.54,408.09,72.61Z"/><path class="cls-33" d="M408.09,72.61c-34.25,5.49-43.18,38.07-30.73,62.41,5.06,9.9,14.29,18.8,21.94,28-1.16.14-2.28.3-3.37.49-7-6.64-16-14.93-22.4-23.61C353.81,113,363.13,75.44,408.09,72.61Z"/><path class="cls-34" d="M359.65,113.76c-.22-21.8,13.49-41.12,48.44-41.15-45,2.83-54.28,40.4-34.56,67.29,6.37,8.68,15.39,17,22.4,23.61-.94.16-1.84.34-2.72.55C390.49,162.11,359.88,135.56,359.65,113.76Z"/><path class="cls-35" d="M377.36,135c-12.45-24.34-3.52-56.92,30.73-62.41-24.59,7.93-29.44,46.54-15.62,74.87,2.72,5.57,6.7,10,10.31,15.2-1.18.09-2.34.2-3.48.34C391.65,153.82,382.42,144.92,377.36,135Z"/><path class="cls-5" d="M411.07,180.53H411a.14.14,0,0,1-.08-.18l3.34-10a.16.16,0,0,1,.19-.1.14.14,0,0,1,.09.19l-2.8,8.36L416.5,170a.15.15,0,1,1,.26.14l-5.56,10.31A.17.17,0,0,1,411.07,180.53Z"/><path class="cls-5" d="M411.07,180.53l-.09,0a.16.16,0,0,1,0-.21l7.74-10.86a.15.15,0,0,1,.21,0,.14.14,0,0,1,0,.2l-7.74,10.86A.16.16,0,0,1,411.07,180.53Z"/><path class="cls-5" d="M405.23,180.53a.14.14,0,0,1-.12-.06l-7.06-10.86a.16.16,0,0,1,.05-.21.15.15,0,0,1,.2,0l6.15,9.46-3.67-8.73a.15.15,0,0,1,.08-.2.15.15,0,0,1,.19.08l4.32,10.27a.15.15,0,0,1-.07.19Z"/><path class="cls-5" d="M405.23,180.53a.15.15,0,0,1-.14-.11l-2.53-10a.15.15,0,1,1,.29-.07l2.53,10a.15.15,0,0,1-.11.18Z"/><path class="cls-36" d="M402.09,189H402a.23.23,0,0,1-.13-.29l3.14-8.42a.24.24,0,0,1,.21-.15h5.84a.21.21,0,0,1,.2.13l3.82,8.43a.22.22,0,0,1-.41.18l-3.75-8.29h-5.54l-3.09,8.28A.22.22,0,0,1,402.09,189Z"/><path class="cls-12" d="M412.51,73a28.48,28.48,0,0,1-9.13,0c-1.73-.39,1.74-1.36,4.55-1.41S415,72.61,412.51,73Z"/><rect class="cls-11" x="400.62" y="188.81" width="15.68" height="0.62" rx="0.31"/><path class="cls-37" d="M418.81,169.53c-.05,1.11-19.89,1.19-20.63,0s8.12-2.1,10.31-2.1C414.41,167.43,418.85,168.66,418.81,169.53Z"/><path class="cls-7" d="M414,189.43H401.28v8.79a.84.84,0,0,0,.84.84h3.11C410.64,198.29,413.57,194.55,414,189.43Z"/><path class="cls-12" d="M414,189.43c-.42,5.12-3.35,8.86-8.76,9.63h9.56a.84.84,0,0,0,.84-.84v-8.79Z"/><path class="cls-38" d="M406.12,162.46q-1.65.06-3.24.18c0,1.26,1.05,3.82,1.94,5.87l2.06-.11C406.76,167.89,405.91,164.11,406.12,162.46Z"/><path class="cls-39" d="M393.22,164.06a26.68,26.68,0,0,0,4.84,5.51c.59-.17,1.43-.38,2.23-.53-2.7-3-3.14-3.47-4.41-5.6A20.38,20.38,0,0,0,393.22,164.06Z"/><path class="cls-40" d="M402.88,162.64c-1.18.08-2.32.18-3.39.29a15.48,15.48,0,0,0,3.24,5.77c.67-.07,1.37-.14,2.09-.19C403.93,166.46,402.85,163.9,402.88,162.64Z"/><path class="cls-41" d="M399.49,162.93c-1.32.15-2.54.31-3.61.51,1.27,2.13,1.71,2.59,4.41,5.6.75-.13,1.57-.24,2.44-.34A15.48,15.48,0,0,1,399.49,162.93Z"/><path class="cls-42" d="M410.15,162.38c-1.34,0-2.7,0-4,.08-.21,1.65.64,5.43.76,5.94.91,0,1.83,0,2.74,0A18,18,0,0,0,410.15,162.38Z"/><path class="cls-43" d="M420.77,163c-1-.15-2-.28-3.14-.38-.14,2.69-2.23,5.6-2.56,6.05a23.88,23.88,0,0,1,2.6.47C418.08,168.75,420.84,165.79,420.77,163Z"/><path class="cls-44" d="M423.41,163.62a19.9,19.9,0,0,0-2.64-.58c.07,2.75-2.69,5.71-3.1,6.14.41.11.79.22,1.14.35C418.81,169.53,423,165.06,423.41,163.62Z"/><path class="cls-45" d="M413.67,162.43c-1.15,0-2.33-.05-3.52-.05a18,18,0,0,1-.53,6c.9,0,1.78,0,2.64.08A14.86,14.86,0,0,0,413.67,162.43Z"/><path class="cls-46" d="M413.67,162.43a14.86,14.86,0,0,1-1.41,6c1,.06,1.92.14,2.81.26.33-.45,2.42-3.36,2.56-6.05C416.38,162.56,415.05,162.48,413.67,162.43Z"/><path class="cls-31" d="M197.3,85.62a23.15,23.15,0,0,1,10.18-4.55,21.35,21.35,0,0,1,11.19,1.56c3.5,1.33,6.7,3.06,10.13,3.85a15.72,15.72,0,0,0,5.21.39,21.11,21.11,0,0,0,5.22-1.25.16.16,0,0,1,.21.1.16.16,0,0,1-.06.19,16.14,16.14,0,0,1-5.19,2.14,14.88,14.88,0,0,1-5.72.1c-3.81-.65-7.18-2.37-10.51-3.67a30.46,30.46,0,0,0-5.07-1.55,18.65,18.65,0,0,0-5.22-.29,28.43,28.43,0,0,0-10.18,3.27.17.17,0,0,1-.24-.07A.17.17,0,0,1,197.3,85.62Z"/><path class="cls-28" d="M208.08,77.46a11.34,11.34,0,0,1,5.33-.75,23.89,23.89,0,0,1,5.26,1.18c3.37,1.13,6.57,2.56,9.87,3.38a18.44,18.44,0,0,0,9.86,0,30.06,30.06,0,0,0,9-4.8.18.18,0,0,1,.25,0,.18.18,0,0,1,0,.22A20.22,20.22,0,0,1,239,83a15.9,15.9,0,0,1-5.47.9,21.94,21.94,0,0,1-5.44-.8,87.56,87.56,0,0,1-9.89-3.86,26.23,26.23,0,0,0-4.89-1.56,11.58,11.58,0,0,0-5.07.09.18.18,0,0,1-.22-.14A.18.18,0,0,1,208.08,77.46Z"/><path class="cls-27" d="M198.82,76A23.3,23.3,0,0,1,209,71.41,21.25,21.25,0,0,1,220.19,73c3.5,1.32,6.7,3,10.13,3.85a15.72,15.72,0,0,0,5.21.38A20.68,20.68,0,0,0,240.75,76a.16.16,0,0,1,.21.1.16.16,0,0,1-.06.19,16.38,16.38,0,0,1-5.19,2.15,15.29,15.29,0,0,1-5.72.1c-3.81-.66-7.18-2.37-10.51-3.68a30.18,30.18,0,0,0-5.07-1.55,19,19,0,0,0-5.22-.29A28.45,28.45,0,0,0,199,76.25a.18.18,0,0,1-.24-.08A.17.17,0,0,1,198.82,76Z"/><path class="cls-27" d="M117.47,72.34c26.91,8.68,33,49.82,19.09,81.35-3.21,7.27-8.41,13.89-12.8,19.79v.05c-1.18-.05-2.4-.07-3.63-.08C127.82,153.38,132.88,98.66,117.47,72.34Z"/><path class="cls-28" d="M117.47,72.34c37.92,7.83,50.36,39.86,34.62,70.26-5.76,11.12-15.44,20.83-24,31.19-1.34-.12-2.78-.21-4.29-.26v-.05c4.39-5.9,9.59-12.52,12.8-19.79C150.5,122.16,144.38,81,117.47,72.34Z"/><path class="cls-29" d="M117.47,72.34c53.81,3.46,61.12,45.48,38.92,75.75-7.17,9.78-16.64,18.67-24.54,26.14-1.13-.18-2.41-.32-3.8-.44,8.6-10.36,18.28-20.07,24-31.19C167.83,112.2,155.39,80.17,117.47,72.34Z"/><path class="cls-30" d="M117.47,72.34c15.41,26.32,10.35,81,2.66,101.11-1.72,0-3.48,0-5.26.1C107.18,153.48,102.06,98.66,117.47,72.34Z"/><path class="cls-31" d="M117.47,72.34c37.82,0,54.66,19,54.41,45.08S138,173,134.72,174.8a29.08,29.08,0,0,0-2.87-.57c7.9-7.47,17.37-16.36,24.54-26.14C178.59,117.82,171.28,75.8,117.47,72.34Z"/><path class="cls-32" d="M117.47,72.34c-15.41,26.32-10.29,81.14-2.6,101.21-1.13,0-2.26.11-3.39.2-4-5.84-8.53-10.85-11.59-17.12C84.32,124.74,89.79,81.27,117.47,72.34Z"/><path class="cls-33" d="M117.47,72.34c-38.56,6.18-48.61,42.87-34.6,70.26,5.7,11.15,16.1,21.17,24.7,31.52-1.3.16-2.56.34-3.79.55-7.89-7.47-18-16.8-25.21-26.58C56.36,117.82,66.85,75.53,117.47,72.34Z"/><path class="cls-34" d="M62.94,118.67c-.25-24.54,15.19-46.29,54.53-46.33-50.62,3.19-61.11,45.48-38.9,75.75,7.17,9.78,17.32,19.11,25.21,26.58-1,.19-2.08.39-3.06.62C97.65,173.1,63.19,143.22,62.94,118.67Z"/><path class="cls-35" d="M82.87,142.6c-14-27.39-4-64.08,34.6-70.26-27.68,8.93-33.15,52.4-17.58,84.29,3.06,6.27,7.54,11.28,11.59,17.12-1.32.1-2.63.22-3.91.37C99,163.77,88.57,153.75,82.87,142.6Z"/><path class="cls-5" d="M120.82,193.84h-.06a.19.19,0,0,1-.1-.21l3.77-11.25a.16.16,0,0,1,.31.11l-3.15,9.41,5.35-9.9a.15.15,0,0,1,.22-.06.16.16,0,0,1,.07.22L121,193.75A.16.16,0,0,1,120.82,193.84Z"/><path class="cls-5" d="M120.82,193.84a.14.14,0,0,1-.09,0,.16.16,0,0,1,0-.23l8.71-12.23a.17.17,0,1,1,.28.2L121,193.77A.16.16,0,0,1,120.82,193.84Z"/><path class="cls-5" d="M114.25,193.84a.19.19,0,0,1-.14-.07l-7.94-12.23a.17.17,0,1,1,.28-.18L113.37,192l-4.13-9.82a.16.16,0,0,1,.09-.22.15.15,0,0,1,.21.09l4.87,11.55a.17.17,0,0,1-.08.21A.11.11,0,0,1,114.25,193.84Z"/><path class="cls-5" d="M114.25,193.84a.17.17,0,0,1-.16-.12l-2.85-11.25a.18.18,0,0,1,.12-.21.19.19,0,0,1,.21.12l2.84,11.25a.17.17,0,0,1-.12.21Z"/><path class="cls-36" d="M110.72,203.41h-.09a.26.26,0,0,1-.15-.33l3.54-9.48a.25.25,0,0,1,.23-.17h6.57a.25.25,0,0,1,.23.15l4.3,9.49a.26.26,0,0,1-.13.33.25.25,0,0,1-.33-.12l-4.23-9.34h-6.23L111,203.25A.25.25,0,0,1,110.72,203.41Z"/><path class="cls-12" d="M122.45,72.73a32.26,32.26,0,0,1-10.28,0c-2-.44,2-1.53,5.12-1.59S125.23,72.34,122.45,72.73Z"/><rect class="cls-11" x="109.05" y="203.16" width="17.65" height="0.7" rx="0.31"/><path class="cls-37" d="M129.54,181.45c-.06,1.26-22.39,1.34-23.23,0s9.14-2.36,11.61-2.36C124.58,179.09,129.58,180.48,129.54,181.45Z"/><path class="cls-7" d="M124.12,203.86H109.8v9.89a1,1,0,0,0,1,.95h3.5C120.34,213.83,123.64,209.62,124.12,203.86Z"/><path class="cls-12" d="M124.12,203.86c-.48,5.76-3.78,10-9.87,10.84H125a1,1,0,0,0,.95-.95v-9.89Z"/><path class="cls-38" d="M115.25,173.5c-1.24.05-2.46.11-3.64.19,0,1.42,1.17,4.31,2.17,6.62.76-.05,1.54-.09,2.33-.12C116,179.61,115,175.35,115.25,173.5Z"/><path class="cls-39" d="M100.72,175.29a30.76,30.76,0,0,0,5.45,6.21,23.76,23.76,0,0,1,2.52-.59c-3-3.4-3.53-3.91-5-6.32A26.26,26.26,0,0,0,100.72,175.29Z"/><path class="cls-40" d="M111.61,173.69c-1.33.09-2.62.21-3.82.34a17.23,17.23,0,0,0,3.65,6.49c.75-.08,1.54-.15,2.34-.21C112.78,178,111.57,175.11,111.61,173.69Z"/><path class="cls-41" d="M107.79,174c-1.49.16-2.86.35-4.06.56,1.43,2.41,1.92,2.92,5,6.32.84-.15,1.76-.28,2.75-.39A17.23,17.23,0,0,1,107.79,174Z"/><path class="cls-42" d="M119.79,173.41c-1.51,0-3,0-4.54.09-.23,1.85.72,6.11.86,6.69,1,0,2.06-.05,3.09,0A20.61,20.61,0,0,0,119.79,173.41Z"/><path class="cls-43" d="M131.74,174.15c-1.08-.17-2.27-.31-3.53-.43-.15,3-2.51,6.3-2.89,6.81a25.82,25.82,0,0,1,2.93.53C128.72,180.58,131.82,177.24,131.74,174.15Z"/><path class="cls-44" d="M134.72,174.8a22.43,22.43,0,0,0-3-.65c.08,3.09-3,6.43-3.49,6.91.46.12.9.25,1.29.39C129.54,181.45,134.3,176.42,134.72,174.8Z"/><path class="cls-45" d="M123.75,173.46c-1.29,0-2.62-.06-4-.05a20.61,20.61,0,0,1-.59,6.74c1,0,2,0,3,.09C122.41,179.7,123.93,176.24,123.75,173.46Z"/><path class="cls-46" d="M123.75,173.46c.18,2.78-1.34,6.24-1.58,6.78,1.1.06,2.16.16,3.15.29.38-.51,2.74-3.78,2.89-6.81C126.8,173.6,125.3,173.52,123.75,173.46Z"/><path class="cls-6" d="M61,33.41c14.55-.08,28.87,21.18,24.56,34.94-5,15.87-39.74,23.37-48,2.77S45.3,33.51,61,33.41Z"/><path class="cls-5" d="M42.19,50.53C46.86,40.17,66.63,36.9,75,44.44c9.66,8.69,3.69,35.84-13.64,35S37.17,61.71,42.19,50.53Z"/><path class="cls-47" d="M48.45,53.81c3-6.75,15.9-8.88,21.35-4,6.29,5.66,2.41,23.32-8.87,22.79A13.65,13.65,0,0,1,48.45,53.81Z"/></g></g></svg>