<svg xmlns="http://www.w3.org/2000/svg" viewBox="0 0 283.16 406.31"><defs><style>.cls-1{fill:#fbba87;}.cls-2{fill:#f3b7a1;}.cls-3{fill:#f47920;}.cls-4{fill:#cc6127;}.cls-5{fill:#f4c3b0;}.cls-6{fill:#e16025;}.cls-7{fill:#602164;}.cls-8{fill:#d3a2ca;}.cls-9{fill:#3a1b50;}.cls-10{fill:#412159;}.cls-11{fill:#bf93b7;}.cls-12{fill:#d75a26;}.cls-13{fill:#b64d26;}.cls-14{fill:#f26a21;}</style></defs><title>fixers</title><g id="Layer_2" data-name="Layer 2"><g id="Layer_16" data-name="Layer 16"><ellipse class="cls-1" cx="141.58" cy="401.66" rx="141.58" ry="4.66"/><path class="cls-2" d="M195.24,374.09V397c0,4.79-11.92-1.22-11.92-1.22s-.36-14.27-.81-20.7S195.24,374.09,195.24,374.09Z"/><path class="cls-3" d="M179.89,401.74H198c0-6.2-1.85-9.6-9.07-9.58C182,392.17,180,395.43,179.89,401.74Z"/><polygon class="cls-2" points="226.59 354.25 223.74 362.47 223.74 370.91 231.67 370.91 235.94 368.57 241.55 352.42 226.59 354.25"/><path class="cls-3" d="M236.71,381.21c2.11,6.92,3.9,17.42-.66,19.21s-7.21-6.83-7.21-6.83L220.34,370a3.39,3.39,0,0,1,.38-3.06l3-4.45c1.38,3.88,11.36,6.38,12.2,6.1C235.1,371.9,235.61,377.62,236.71,381.21Z"/><path class="cls-4" d="M182.31,211c-7.17,18.84-2.42,80.27-2,94.61s-2.89,36.39-3.62,52.93-3.63,23.52,3.88,22.79,24.79,2.57,24.05-7.35,1.88-82.26,2.78-88.73,2-32.94,2-35.15a24.64,24.64,0,0,1,2.48-9.69,1.67,1.67,0,0,1,2.89,0l3.44,6.1c4.78,7.78,21.94,35.15,20.42,41.75-.88,3.81-13.81,53.46-16,58.67-2.26,5.47-3.14,8.69,3.3,10.78,11.62,3.78,18.49,7.26,21.35-1.76,2.45-7.75,13.1-39,16.95-64.25a33.41,33.41,0,0,0-3.34-20.32c-7.85-15.31-21.36-44-21.54-47C239.16,220.59,182.31,211,182.31,211Z"/><path class="cls-2" d="M224.73,82.47c-3.29,16.33-2,18.49,9.37,21.84,4.11,1.21-4.17,24.65-20.86,19s-31.12-22.75-25-23.07c13.43-.71,16-2.91,18.27-17.75S224.73,82.47,224.73,82.47Z"/><path class="cls-5" d="M229.83,52.09c1.9,18.62,1.38,36.73-13.26,39.77S193.1,63.57,192.82,61.34s-8.3-25.71,21.54-25.71C229.55,35.63,229.44,48.28,229.83,52.09Z"/><path class="cls-6" d="M196.58,73.52c-7.81,2.08-12-12.94-9.67-21.83,1.18-4.51,3.84-6.37,4.72-7.72,6.65-10.17,24.81-20.06,35.1-12.56s8.9,21.81,6.11,26-6.46-2.44-8.9-7.15-6.45-2.44-7.15-1.74-9.94,11-15.17,5.4c4.36,7.85,2,12.38-2.62,18.67-4.05,5.52-1.57,11.8-1.22,13.55a18.74,18.74,0,0,1-.61,7.18c.49-2.83.82-5.34-.63-7.87C194.87,82.51,195.4,76.27,196.58,73.52Z"/><path class="cls-6" d="M198.23,36.57c2.4-5.09-1.34-11.64-10.3-10.57s-15.11,15.27-14.84,19.78,2.23,12.75,13.82,5.91S198.23,36.57,198.23,36.57Z"/><path class="cls-5" d="M197.6,62.78c.18,2.43.66,4.73-1.36,7.83-1,1.55-3.06-2.76-2.87-5.09C193.6,62.66,197.46,61,197.6,62.78Z"/><path class="cls-7" d="M193.54,99.77c-5,1-13.15-.57-24.39,4.72,0,0-.55,2.79-.86,4.2-2.24,10-5.16,28.06-12,42.71-2.31,16.73,21.17,11.07,22.57,18.87s-.8,25.27-.84,39.14c0,12.91.64,14.44,9.23,15.24s40.58,2.6,54.19,2.6c5,0,2.18-14.34,1.61-16.61-2.94-11.67-5-29.18-4.81-33.78,7.8,2.8,12.75,2.08,14.79-4.19,3.55-10.89,3.6-33.54,3.4-36.39-.66-9.8-.31-20.31-9.91-25.91s-14.42-6.67-14.42-6.67c-5.2,12.2-13.17,15.44-21,15C202.09,118.15,194.56,107.76,193.54,99.77Z"/><path class="cls-2" d="M186.3,167.92c8.51,4.13,33.62,6.34,45.66,4.46-1.32-4-.42-6-.42-6-12.15-6.2-36.55-12.4-41.25-13.1C191.11,158,189.43,167.1,186.3,167.92Z"/><path class="cls-2" d="M235.79,163c1.05-5.64,5.6-14.75,5.6-14.75.56-2.51-5,1.37-7.57,4.11s-6.71,7.84-6.71,7.84Z"/><path class="cls-5" d="M235.79,163c-1.47,3.26-.15,11.43.11,12.52-4.39-1.7-16.5-7.3-21.82-11.95s-20.79-9.33-22-9.6-16.08-7.82-16.61-10.88-1.06-4.4,3.33-3.73a25.85,25.85,0,0,1,11,3.86c3.2,2.13,10,7.56,19.7,9.3S232.59,159.37,235.79,163Z"/><polygon class="cls-8" points="33.22 350.76 24.77 361.66 37.24 369.29 46 357.77 33.22 350.76"/><path class="cls-8" d="M94.88,375.56v22.86c0,4.79-11.93-1.21-11.93-1.21s-.35-14.28-.8-20.71S94.88,375.56,94.88,375.56Z"/><path class="cls-9" d="M26.63,359.24c3.66,6.31,6.23,6.25,10.61,10.05-1.6,2.7.62,8.8,1.56,12.65.2.82,3.66,14.35-.13,19.35-2.2,2.9-4.71,2.88-7.84-2.61S19.72,374,19.72,374s-1.88-3,0-5.62C22.05,365.14,26.63,359.24,26.63,359.24Z"/><path class="cls-9" d="M80.77,403.21H96.46A1.19,1.19,0,0,0,97.65,402c-.26-5.41-2.33-8.35-9.05-8.33-6.52,0-8.66,2.84-9,8.31A1.2,1.2,0,0,0,80.77,403.21Z"/><path class="cls-9" d="M101.92,205.23c-4.64,24.39-7.08,45-13.31,69.67-6.15,24.4,4.26,40.89,4.26,40.89S95.55,339.33,98,347c6.63,20.85,8.54,26.14,0,30.27-6.38,3.08-22,7.19-23.33,0-1.82-9.54-6.07-30.92-6.07-30.92s-8.79-37.11-6.83-39.39a133.55,133.55,0,0,1-9.26-49.52c0-19.61,1.44-58.22,2.42-61.48S101.92,205.23,101.92,205.23Z"/><path class="cls-10" d="M135.56,211c-4.64,24.39-16.67,71.29-31.57,91.57S68.58,347,68.58,347,52.31,367.53,44.5,361.67s-20-12.35-14.33-18.55c7.15-7.87,45.83-43.25,54-70.56C90.5,251.36,97,206.31,98,203.05S135.56,211,135.56,211Z"/><path class="cls-11" d="M120,48.82c-1.38,8.94-3.14,15.78-12.33,16.8S124.1,92,124.1,92l18.71-21.88s-7.7-4.36-6.06-13.35C139.8,40.09,120,48.82,120,48.82Z"/><path class="cls-8" d="M152.28,30.88h0c2-9.6.57-20.35-17.71-22.46-15.71-1.82-20.48,6-21.69,14.14-3.18.07-4.67,5.91-1,11.19a4,4,0,0,0,1,1.09c1,12.66,3.74,22.81,13.92,24.52,7.48,1.26,17.69-4.8,22.23-17.76C155.36,38.32,156.41,31.43,152.28,30.88Z"/><path class="cls-9" d="M126.68,12.94c5.75,9.43,21.92,17.31,25.6,17.94,3-9.23,5.93-29.57-21.68-30.85-20.47-.95-18,20.89-17.72,22.52C118.24,21.64,120.42,20.11,126.68,12.94Z"/><path class="cls-12" d="M124.74,83.74l-13.23-19c-16.39,3.16-28.18,8.62-32.49,19s-25,54.92-7.19,62.4C67,158.71,44.27,199.32,55.64,203.22c9.22,3.16,31.26,6.54,39.26,7.7a3.23,3.23,0,0,0,3.61-2.5l11.2-48.21c.08-1.92,6.39,1,8.52,2.82s4.48.74,4.32-3.53.67-27.9.67-27.9l-7.55-2.45Z"/><path class="cls-13" d="M104.48,66.35l5.14,19.4s1.72,4.3,5.77,2.12a52.19,52.19,0,0,1,9.35-4.13l-13.23-19Z"/><path class="cls-14" d="M112.19,146.38s-6.81-1.94-7.71-5.55-3.12-16.66-3.12-16.66,1.11-2.5,4.45-1.11,10.36,3.63,10.36,3.63l8.57-42.95L140.58,68.4c9.21,7.16,19.43,16.16,25.16,22.91s4.68,7.74,3.66,12S159,158.4,151.63,157.78s-5.32,7-5.57,12-2.22,35.66-4,42.35-3.46,7.18-9.41,6.68c-4.68-.39-24-4.16-31.93-5.74a3.46,3.46,0,0,1-2.7-4.15l11.42-50.5c.41-1.5,6.26,2,8.9,3.44s4.13,3,4.17-2.89.12-9,.12-9C117.51,147.92,112.19,146.38,112.19,146.38Z"/><path class="cls-13" d="M145.81,72.57s-10.53,21.06-14.56,18.54c-3.54-2.21-6.51-7.37-6.51-7.37L140.58,68.4Z"/><path class="cls-8" d="M142.18,136,148,126.8s1.27-5.07-3.26-2.72-13.33,7.43-13.33,7.43Z"/><path class="cls-8" d="M122.55,160.12c2,.26,7.16-3.34,8.87-5.76a70,70,0,0,1-8.87-4.41Z"/><path class="cls-8" d="M101.83,126.87c-5.74-2-11.87-1.11-18.59-3.65s-15.67-8.85-15.67-8.85a60.28,60.28,0,0,0-2.82,19.3c0,.45,8.48.88,16.1,0S104,138.59,104,138.59Z"/><path class="cls-9" d="M127.94,14.77c1.93,4.63,6.37,9,7.85,9.53-.78-1.56-1.95-3.69-1.95-4.77s-3.64-5.86-3.64-5.86Z"/></g></g></svg>