<svg xmlns="http://www.w3.org/2000/svg" viewBox="0 0 1441 542.53"><defs><style>.cls-1{fill:#f5e0ec;}.cls-2{fill:#e7c5de;}.cls-3{fill:#d2a1c9;}.cls-4{fill:#481752;}.cls-5{fill:#602164;}</style></defs><title>footer2</title><g id="Layer_2" data-name="Layer 2"><g id="land"><path class="cls-1" d="M99.5,324c28,32,72-19.29,142-55,49.21-25.09,105.2-11.93,160.22,14.35C427.65,260.52,456,242.68,477.5,257c36,24,59-32,134-91s154,32,244,84c91.78,53,154-59,284,42,78,60.64,255.5-96.5,301.5-78.5v-86c-106-85-180.86,110.57-291.5,59.5-156-72-210.27,67.53-285,9C721.5,84,640.5-2,576.5,0s-135,103-246,204c-48.08,43.75-83.25,27.62-214-26C47,149.53,0,227.53,0,227.53L.18,350.31C3.7,345.93,59.38,278.18,99.5,324Z"/><path class="cls-2" d="M1139.5,292c-130-101-192.22,11-284-42-90-52-169-143-244-84s-98,115-134,91c-21.53-14.35-49.85,3.49-75.78,26.35C458.51,310.51,514.28,351.61,560.5,379c10.69,6.35,19.73,9.46,28,10.22,2.3-5.37,4.22-9.11,4.22-9.11,1.31,3.22,2.58,6.26,3.77,9.14a51,51,0,0,0,13.22-3.1c.62-1.28,1-2,1-2,.19.49.39,1,.58,1.43,49-19.45,99.09-101.3,389.24,8.46,91.4,34.58,64-68,170-18a40.59,40.59,0,0,0,21.76,3.4,156.58,156.58,0,0,1,9.42-23.29c3,7.34,5.73,13.76,7.89,19.35.87-.29,1.74-.6,2.62-.91a163.69,163.69,0,0,1,7.49-17.44c1.81,4.44,3.53,8.54,5.08,12.33,56.46-25.05,128.89-79.56,216.24,35.06v-191C1395,195.53,1217.55,352.67,1139.5,292Z"/><path class="cls-3" d="M.18,350.31l-.18.22v85l.3-.09Z"/><path class="cls-3" d="M602.39,430.33a7.12,7.12,0,0,1-2.49-3,12.82,12.82,0,0,1-5.39,1.91v5.23q7.5,2.16,15,4.45V433.2A17.16,17.16,0,0,1,602.39,430.33Z"/><path class="cls-3" d="M110.57,409.78c2.6-.43,5.21-.86,7.84-1.27q-2.75-2.33-5.5-4.84a14.27,14.27,0,0,1-2.34.53Z"/><path class="cls-3" d="M521.39,409.33a6.83,6.83,0,0,1-2.08-2.26,12.89,12.89,0,0,1-5.8,2.17v5.7q7.5,1.47,15,3.07V412.2A17.16,17.16,0,0,1,521.39,409.33Z"/><path class="cls-3" d="M1211.39,403.33a6.71,6.71,0,0,1-1.11-.95,13.42,13.42,0,0,1-6.77,2.86v5.86q7.56.22,15,.52V406.2A17.16,17.16,0,0,1,1211.39,403.33Z"/><path class="cls-3" d="M72.8,369.85A32.1,32.1,0,0,0,60.26,368,155.53,155.53,0,0,1,67,384.68C68.49,380.33,70.5,375.4,72.8,369.85Z"/><path class="cls-3" d="M503.39,406.33a6.54,6.54,0,0,1-1.83-1.84,12.23,12.23,0,0,1-3.05.75v6.87c4,.72,8,1.48,12,2.25V409.2A17.16,17.16,0,0,1,503.39,406.33Z"/><path class="cls-3" d="M488.39,402.33a6.76,6.76,0,0,1-1.63-1.57,13.24,13.24,0,0,1-6.25,2.48V409q7.49,1.22,15,2.55V405.2A17.16,17.16,0,0,1,488.39,402.33Z"/><path class="cls-3" d="M101.31,401.76a6.76,6.76,0,0,1-1.63,1.57,17.11,17.11,0,0,1-7.11,2.87v6.73q7.38-1.37,15-2.65v-6A13.24,13.24,0,0,1,101.31,401.76Z"/><path class="cls-3" d="M1193.39,402.33c-5.2-3.47-4-13.24-1.13-22.9a40.59,40.59,0,0,1-21.76-3.4c-106-50-78.6,52.58-170,18-290.15-109.76-340.29-27.91-389.24-8.46,9.9,24.11,16.67,38.09,8.09,44.76a13.39,13.39,0,0,1-6.84,2.91v6.61a835.57,835.57,0,0,1,128.55,51.61,485.46,485.46,0,0,1,74.5-32.69v-5.53a13.39,13.39,0,0,1-6.84-2.91c-8.75-6.8-1.54-21.2,8.67-46.19,0,0,19.79,38.51,8.29,46.19a17.11,17.11,0,0,1-7.11,2.87v4.52c115.33-39.51,259.37-50.08,381.93-46.7V405.2A17.16,17.16,0,0,1,1193.39,402.33Z"/><path class="cls-3" d="M588.46,389.25c-8.23-.76-17.27-3.87-28-10.22-46.22-27.42-102-68.52-158.78-95.65-55-26.28-111-39.44-160.22-14.35-70,35.71-114,87-142,55C59.38,278.18,3.7,345.93.18,350.31L.3,435.44c.8-.26,1.62-.51,2.44-.76C9,417.93,28.13,373.55,56.63,368.44l1.76-4.3s.75,1.47,1.87,3.86a32.1,32.1,0,0,1,12.54,1.85q1.71-4.12,3.59-8.71s3,5.9,6,13.53c.48.3,1,.62,1.43,1,2.1-5.39,4.71-11.52,7.55-18.49a160.87,160.87,0,0,1,8.73,21.06c2.29-6.4,5.59-14,9.27-23.06,0,0,19.79,38.51,8.29,46.19a18.89,18.89,0,0,1-4.77,2.34q2.76,2.52,5.5,4.84,20.37-3.22,42.15-5.81v-5.46a13.39,13.39,0,0,1-6.84-2.91c-8.75-6.8-1.54-21.2,8.67-46.19,0,0,19.79,38.51,8.29,46.19a17.11,17.11,0,0,1-7.11,2.87v5.15a1185.69,1185.69,0,0,1,127.68-7.69c3.84-3.33,7.57-6.72,11.16-10.13-9.31-9.23,9.27-45.39,9.27-45.39,3.5,8.58,6.66,15.92,8.93,22.12a157.88,157.88,0,0,1,9.07-22.12c1.72,4.23,3.36,8.14,4.85,11.77,7.34,17.86,11.09,28.77,3.82,34.42a13.39,13.39,0,0,1-6.84,2.91v6.85a1120.26,1120.26,0,0,1,146,13.45V403.2a17.16,17.16,0,0,1-7.11-2.87c-11.5-7.68,8.29-46.19,8.29-46.19,3.69,9,7,16.66,9.27,23.06a160.87,160.87,0,0,1,8.73-21.06c3.09,7.57,5.9,14.15,8.08,19.86a166.2,166.2,0,0,1,6.92-15.86c3.78,9.25,7.14,17,9.44,23.54a160.14,160.14,0,0,1,8.56-20.54c10.21,25,17.42,39.39,8.67,46.19a13.39,13.39,0,0,1-6.84,2.91v6.42q30,6.46,60,14.95V429.2a17.16,17.16,0,0,1-7.11-2.87C576.47,421,583.39,401.14,588.46,389.25Z"/><path class="cls-3" d="M609.67,386.18a51,51,0,0,1-13.22,3.1c2.3,5.58,4.32,10.53,5.84,14.88A160.74,160.74,0,0,1,609.67,386.18Z"/><path class="cls-3" d="M310.5,394.69V388.2a17.16,17.16,0,0,1-7.11-2.87,6.33,6.33,0,0,1-1-.8c-3.59,3.41-7.32,6.8-11.16,10.13Q300.81,394.6,310.5,394.69Z"/><path class="cls-3" d="M68.76,408.07a6.83,6.83,0,0,1-2.08,2.26,17.11,17.11,0,0,1-7.11,2.87v6.45q7.35-1.63,15-3.21v-6.2A12.89,12.89,0,0,1,68.76,408.07Z"/><path class="cls-3" d="M89.56,406.24a12.23,12.23,0,0,1-3-.75,6.54,6.54,0,0,1-1.83,1.84,17.11,17.11,0,0,1-7.11,2.87v5.63q6.72-1.35,13.65-2.65H89.56Z"/><path class="cls-3" d="M56.56,420.18v-6.94a13.39,13.39,0,0,1-6.84-2.91c-8.23-6.4-2.33-19.54,6.91-41.89C28.13,373.55,9,417.93,2.74,434.68c16.31-5.1,34.55-10,54.45-14.5Z"/><path class="cls-3" d="M1212.19,374.58c-.88.31-1.75.62-2.62.91.43,1.11.83,2.19,1.21,3.24C1211.23,377.33,1211.7,375.94,1212.19,374.58Z"/><path class="cls-3" d="M83.84,375.63c-.48-.34-1-.66-1.43-1,.3.76.6,1.54.9,2.33C83.48,376.55,83.66,376.09,83.84,375.63Z"/><path class="cls-3" d="M1363.39,419.33a6.54,6.54,0,0,1-1.83-1.84,12.23,12.23,0,0,1-3,.75v5.92q6.13.93,12,1.88V422.2A17.16,17.16,0,0,1,1363.39,419.33Z"/><path class="cls-3" d="M1348.39,415.33a6.76,6.76,0,0,1-1.63-1.57,13.24,13.24,0,0,1-6.25,2.48v5.4q7.68,1,15,2.08V418.2A17.16,17.16,0,0,1,1348.39,415.33Z"/><path class="cls-3" d="M321.39,385.33c-.19-.13-.36-.29-.53-.43-.17.14-.33.29-.51.43a13.39,13.39,0,0,1-6.84,2.91v6.49q7.47.09,15,.28V388.2A17.16,17.16,0,0,1,321.39,385.33Z"/><path class="cls-3" d="M1224.76,369.47c7.19,17.53,10.78,28.27,3.59,33.86a13.39,13.39,0,0,1-6.84,2.91v5.5c42.47,1.75,81.88,5.14,116,9.51V416.2a17.16,17.16,0,0,1-7.11-2.87c-11.5-7.68,8.29-46.19,8.29-46.19,3.69,9,7,16.66,9.27,23.06a160.87,160.87,0,0,1,8.73-21.06c3.09,7.57,5.9,14.15,8.08,19.86a166.2,166.2,0,0,1,6.92-15.86c10.21,25,17.42,39.39,8.67,46.19a13.39,13.39,0,0,1-6.84,2.91v4.3c28.94,4.85,52.12,10.39,67.49,16v-38C1353.65,289.91,1281.22,344.42,1224.76,369.47Z"/><path class="cls-4" d="M.3,435.44l-.3.09v107H.45Z"/><path class="cls-4" d="M92.57,413.18v-.25l-1.35.25Z"/><path class="cls-4" d="M59.57,420.18v-.53l-2.38.53Z"/><path class="cls-4" d="M610.68,384.14s-.39.76-1,2l1.59-.61C611.07,385.1,610.87,384.63,610.68,384.14Z"/><path class="cls-5" d="M1373.51,426.54v-4.3a13.39,13.39,0,0,0,6.84-2.91c8.75-6.8,1.54-21.2-8.67-46.19a166.2,166.2,0,0,0-6.92,15.86c-2.18-5.71-5-12.29-8.08-19.86A160.87,160.87,0,0,0,1348,390.2c-2.29-6.4-5.58-14-9.27-23.06,0,0-19.79,38.51-8.29,46.19a17.16,17.16,0,0,0,7.11,2.87v5.05c-34.11-4.37-73.52-7.76-116-9.51v-5.5a13.39,13.39,0,0,0,6.84-2.91c7.19-5.59,3.6-16.33-3.59-33.86-1.55-3.79-3.27-7.89-5.08-12.33a163.69,163.69,0,0,0-7.49,17.44c-.49,1.36-1,2.75-1.41,4.15-.38-1.05-.78-2.13-1.21-3.24-2.16-5.59-4.89-12-7.89-19.35a156.58,156.58,0,0,0-9.42,23.29c-2.87,9.66-4.07,19.43,1.13,22.9a17.16,17.16,0,0,0,7.11,2.87V411c-122.56-3.38-266.6,7.19-381.93,46.7V453.2a17.11,17.11,0,0,0,7.11-2.87c11.5-7.68-8.29-46.19-8.29-46.19-10.21,25-17.42,39.39-8.67,46.19a13.39,13.39,0,0,0,6.84,2.91v5.53a485.46,485.46,0,0,0-74.5,32.69,742.77,742.77,0,0,1,86.47,51.07H1441v-100C1425.63,436.93,1402.45,431.39,1373.51,426.54Zm-155-14.92q-7.44-.3-15-.52v-5.86a13.42,13.42,0,0,0,6.77-2.86,6.71,6.71,0,0,0,1.11.95,17.16,17.16,0,0,0,7.11,2.87Zm137,12.1q-7.3-1.08-15-2.08v-5.4a13.24,13.24,0,0,0,6.25-2.48,6.76,6.76,0,0,0,1.63,1.57,17.16,17.16,0,0,0,7.11,2.87Zm15,2.32q-5.85-1-12-1.88v-5.92a12.23,12.23,0,0,0,3-.75,6.54,6.54,0,0,0,1.83,1.84,17.16,17.16,0,0,0,7.11,2.87Z"/><path class="cls-4" d="M741.06,491.46a835.57,835.57,0,0,0-128.55-51.61v-6.61a13.39,13.39,0,0,0,6.84-2.91c8.58-6.67,1.81-20.65-8.09-44.76l-1.59.61a160.74,160.74,0,0,0-7.38,18c-1.52-4.35-3.54-9.3-5.84-14.88-1.19-2.88-2.46-5.92-3.77-9.14,0,0-1.92,3.74-4.22,9.11-5.07,11.89-12,31.79-4.07,37.08a17.16,17.16,0,0,0,7.11,2.87v4.41q-29.93-8.5-60-14.95v-6.42a13.39,13.39,0,0,0,6.84-2.91c8.75-6.8,1.54-21.2-8.67-46.19a160.14,160.14,0,0,0-8.56,20.54c-2.3-6.5-5.66-14.29-9.44-23.54A166.2,166.2,0,0,0,504.76,376c-2.18-5.71-5-12.29-8.08-19.86A160.87,160.87,0,0,0,488,377.2c-2.29-6.4-5.58-14-9.27-23.06,0,0-19.79,38.51-8.29,46.19a17.16,17.16,0,0,0,7.11,2.87v5.34a1120.26,1120.26,0,0,0-146-13.45v-6.85a13.39,13.39,0,0,0,6.84-2.91c7.27-5.65,3.52-16.56-3.82-34.42-1.49-3.63-3.13-7.54-4.85-11.77a157.88,157.88,0,0,0-9.07,22.12c-2.27-6.2-5.43-13.54-8.93-22.12,0,0-18.58,36.16-9.27,45.39a6.33,6.33,0,0,0,1,.8,17.16,17.16,0,0,0,7.11,2.87v6.49q-9.69-.09-19.25,0a1185.69,1185.69,0,0,0-127.68,7.69V397.2a17.11,17.11,0,0,0,7.11-2.87c11.5-7.68-8.29-46.19-8.29-46.19-10.21,25-17.42,39.39-8.67,46.19a13.39,13.39,0,0,0,6.84,2.91v5.46q-21.75,2.58-42.15,5.81c-2.63.41-5.24.84-7.84,1.27V404.2a14.27,14.27,0,0,0,2.34-.53,18.89,18.89,0,0,0,4.77-2.34c11.5-7.68-8.29-46.19-8.29-46.19-3.68,9-7,16.66-9.27,23.06a160.87,160.87,0,0,0-8.73-21.06c-2.84,7-5.45,13.1-7.55,18.49-.18.46-.36.92-.53,1.37-.3-.79-.6-1.57-.9-2.33-3-7.63-6-13.53-6-13.53q-1.87,4.59-3.59,8.71c-2.3,5.55-4.31,10.48-5.85,14.83A155.53,155.53,0,0,0,60.26,368c-1.12-2.39-1.87-3.86-1.87-3.86l-1.76,4.3c-9.24,22.35-15.14,35.49-6.91,41.89a13.39,13.39,0,0,0,6.84,2.91v7.09c-19.66,4.46-37.68,9.3-53.82,14.35-.82.25-1.64.5-2.44.76L.45,542.53H827.53A742.77,742.77,0,0,0,741.06,491.46Zm-666.5-75q-7.64,1.56-15,3.21V413.2a17.11,17.11,0,0,0,7.11-2.87,6.83,6.83,0,0,0,2.08-2.26,12.89,12.89,0,0,0,5.8,2.17Zm15-4.91h0v2q-6.07,1.14-12,2.33V410.2a17.11,17.11,0,0,0,7.11-2.87,6.54,6.54,0,0,0,1.83-1.84,12.23,12.23,0,0,0,3,.75Zm18-1.25q-7.61,1.29-15,2.65V406.2a17.11,17.11,0,0,0,7.11-2.87,6.76,6.76,0,0,0,1.63-1.57,13.24,13.24,0,0,0,6.25,2.48ZM328.5,395q-7.53-.19-15-.28v-6.49a13.39,13.39,0,0,0,6.84-2.91c.18-.14.34-.29.51-.43.17.14.34.3.53.43a17.16,17.16,0,0,0,7.11,2.87Zm167,16.56q-7.5-1.33-15-2.55v-5.78a13.24,13.24,0,0,0,6.25-2.48,6.76,6.76,0,0,0,1.63,1.57,17.16,17.16,0,0,0,7.11,2.87Zm15,2.79c-4-.77-8-1.53-12-2.25v-6.87a12.23,12.23,0,0,0,3.05-.75,6.54,6.54,0,0,0,1.83,1.84,17.16,17.16,0,0,0,7.11,2.87Zm18,3.65q-7.5-1.59-15-3.07v-5.7a12.89,12.89,0,0,0,5.8-2.17,6.83,6.83,0,0,0,2.08,2.26,17.16,17.16,0,0,0,7.11,2.87Zm81,20.91q-7.49-2.3-15-4.45v-5.23a12.82,12.82,0,0,0,5.39-1.91,7.12,7.12,0,0,0,2.49,3,17.16,17.16,0,0,0,7.11,2.87Z"/></g></g></svg>