<svg xmlns="http://www.w3.org/2000/svg" viewBox="0 0 714.31 372.98"><defs><style>.cls-1{fill:#faefea;}.cls-2{fill:#3a1b50;}.cls-3{fill:#9e4198;}.cls-4{fill:#72226b;}.cls-5{fill:#d3a2ca;}.cls-6,.cls-7{fill:none;stroke-linecap:round;stroke-linejoin:round;}.cls-6{stroke:#f89c70;stroke-width:2px;}.cls-7{stroke:#602164;stroke-width:4px;}.cls-8{fill:#cc6127;}.cls-9{fill:#f6862d;}.cls-10{fill:#f47920;}.cls-11{fill:#e16025;}</style></defs><title>happy_high</title><g id="Layer_2" data-name="Layer 2"><g id="final_design" data-name="final design"><path class="cls-1" d="M0,0C139.73,0,172.33,70.74,316.58,46.72,511.34,14.29,464.21,148.85,583,154.05c88.21,3.86,156.76,101.54,122.27,141.31-17.18,19.8-53.39,30.59-86.46,34C415.27,350.18,337.11,291.88,255,342.08c-109.23,66.78-232.19,4.31-255,5.63Z"/><path class="cls-2" d="M472.6,184.92c7.58-17.34,6.17-17.72,37.14-18.08,26.64-.31,30.18-1,36.88,18.08,6.11,17.37,6.56,17.2,6.56,17.2H466.26Z"/><path class="cls-3" d="M393.11,194.94c-10.39-20.63-11.32-20.82,4.65-36.83,13.16-13.2,15.59-16.26,25.13-11.71,10.22,4.89,26.61,36,25.11,38.72-8.13,14.77-2.57,20.84-2.57,20.84H394.31Z"/><path class="cls-4" d="M364.23,163.32c-32.46,21.4-44.17,43.73-25.14,30.94-8.73,9.35-17.8,24.92-20.63,33.07-1.69,4.88-1.14,7.1,3.09,3.69,5.18-4.17,6-5.45,12.47-12.87-4.8,8.57.72,7.72,3.62,4.1s12.06-21,13.51-24c-1.91,9.05,1.8,5.64,3.38,2,1.16-2.7,10-25.08,13.6-31.38a.37.37,0,0,0-.51-.5c-4.37,2.59-3.37-1.88-2.55-4.39A.56.56,0,0,0,364.23,163.32Z"/><path class="cls-4" d="M325.88,203.39a.11.11,0,0,1,.08.19c-3.87,3-3.08,6.75-5.6,5.59C318.47,208.29,320,204.88,325.88,203.39Z"/><path class="cls-5" d="M374.14,115.43c-10.67,4-18.93,12.25-13.7,19.23,5.05,6.73,5.7,8.83,4.85,14.42-1.31,8.57.94,7.9,6.25,8.21,3.24.19,7.76,10.24,12,4.41s7.92-.93,8.56,2.61c.78,4.32,6.47,4.2,9.69-3.37,1.05-2.46,3-7.64,2.86-9.67,0,0-2.35-6.58-4.15-11.07-2-5.09-4.09-11.64-9-19.56C386.12,112.08,376.8,114.44,374.14,115.43Z"/><path class="cls-2" d="M387.57,108.8c-16.52-2.64-31.62,8-30.58,21,.67,8.39,5,4.58,7.51.93,2.26-3.29,9.34-5.48,14.39,8.28,1.84,5,4.64,5,4.26-.95-.28-4.54-.12-10.74,4.67-10.7,8.15.07,2.6,17.08,11.09,15.51,3.32-.62,3-5.1,3-7.73C401.87,129.63,397.7,110.41,387.57,108.8Z"/><polyline class="cls-6" points="544.77 35.52 527.07 68.32 538.12 35.28"/><line class="cls-6" x1="550.46" y1="35.52" x2="527.07" y2="68.32"/><polyline class="cls-6" points="429.54 35.52 443.34 68.32 422.27 35.9"/><line class="cls-6" x1="434.97" y1="35.28" x2="443.34" y2="68.32"/><polyline class="cls-7" points="581.83 189.25 527.07 68.32 443.34 68.32 398.25 189.25"/><rect class="cls-8" x="377.08" y="189.25" width="225" height="8.87" rx="3.92"/><path class="cls-9" d="M569.05,198.12H386.58V324.21a12.06,12.06,0,0,0,12.07,12.06h44.69C520.88,325.22,563,271.53,569.05,198.12Z"/><path class="cls-10" d="M569.05,198.12c-6,73.41-48.17,127.1-125.71,138.15H580.51a12.06,12.06,0,0,0,12.06-12.06V198.12Z"/><polygon class="cls-11" points="467.5 77.18 479.37 77.18 480.62 64.93 466.26 64.93 467.5 77.18"/><polygon class="cls-9" points="465.01 52.67 466.26 64.93 480.62 64.93 481.86 52.67 465.01 52.67"/><polygon class="cls-9" points="503.35 52.67 486.5 52.67 487.74 64.93 502.1 64.93 503.35 52.67"/><polygon class="cls-11" points="487.74 64.93 488.99 77.18 500.86 77.18 502.1 64.93 487.74 64.93"/><path class="cls-5" d="M431.33,185.48c9.33-6.89,13.12-5.07,15.22-2.94,2.27,2.32,2.31,4.86-3.91,11.17-20.29,20.6-36.43,23.44-39.08,27.35S392.36,233.94,389,232s-1.78-5.61,3.81-11.48c-5.56,1.51-5.17-1.95.42-4.18s5.58.51,16.18-9.17S426.43,189.1,431.33,185.48Z"/><path class="cls-5" d="M505.52,189c-7.39-2.93-13.93-12-13.93-23.12,0-13.18,2.21-23.86,18.15-23.86,14.19,0,18.14,10.68,18.14,23.86,0,11.65-8.12,21.35-15.35,23.45-.95.27-1.72.07-1.95.86s-.84,1.58-1.58,1.58a1.94,1.94,0,0,1-1.8-1.58C507,189.23,506.52,189.35,505.52,189Z"/><path class="cls-3" d="M492.92,177a33.85,33.85,0,0,1-2.2-11.25c0-13.81,2.31-25,19-25,14.87,0,19,11.2,19,25A27.45,27.45,0,0,1,526,177.56c-.74,1.58-1.75,3-2.47-.58s-3.88-1.58-6.18.87-3.32,3.44-7.65,3.45c-4.56,0-6.6-1-8.41-3.55-3.43-4.89-5-2.49-6-.62S493.88,179.75,492.92,177Z"/><path class="cls-5" d="M490.72,188.8c-.13,6.32-1.31,11.83-4.92,11.83-4,0-3.21-6.44-3.41-11.48C482.19,183.9,490.83,183.94,490.72,188.8Z"/><path class="cls-5" d="M537.09,188.8c-.14,6.32-1.31,11.83-4.93,11.83-4,0-3.21-6.44-3.4-11.48C528.55,183.9,537.19,183.94,537.09,188.8Z"/><path class="cls-4" d="M500.9,201.46c-13.84,23.67-17.59,49.5-9.58,38.31a.36.36,0,0,1,.65.21c-.86,16.73-1.51,42.3,3.22,42.3,7.51,0,3.51-26.73,7.93-32.41s3,17.33,7,5.06c1.89-5.8,1.38-16.83,1.15-20.81a.23.23,0,0,1,.44-.1c3.21,6.91,5.26-13.4.6-28.69-.11-.36-.49-.32-.82-.12-5.6,3.29-8.08,3.58-9.75-3.63A.46.46,0,0,0,500.9,201.46Z"/></g></g></svg>