<svg xmlns="http://www.w3.org/2000/svg" viewBox="0 0 326.23 429.99"><defs><style>.cls-1{fill:#f6e0ed;}.cls-2{fill:#e7c5de;}.cls-3{fill:#d3a2ca;}.cls-4{fill:#b366a9;}.cls-5{fill:#9e4198;}.cls-6{fill:#8e3592;}.cls-7{fill:#72226b;}.cls-8{fill:#602164;}.cls-9{fill:#3a1b50;}.cls-10,.cls-11{fill:none;stroke-linecap:round;stroke-linejoin:round;}.cls-10{stroke:#f89c70;}.cls-11{stroke:#602164;stroke-width:1.5px;}.cls-12{fill:#f47920;}.cls-13,.cls-14{fill:#cc6127;}.cls-14{stroke:#cc6127;stroke-miterlimit:10;}.cls-15{fill:#f6862d;}.cls-16{fill:#7f4083;}.cls-17{fill:#301044;}.cls-18{fill:#6b1d64;}.cls-19{fill:#511654;}.cls-20{fill:#8a3685;}.cls-21{fill:#d0b2c9;}.cls-22{fill:#dccad6;}.cls-23{fill:#9b5893;}.cls-24{fill:#b68cb0;}.cls-25{fill:#f89c70;}</style></defs><title>header_balloon_purple</title><g id="Layer_2" data-name="Layer 2"><g id="band_bol" data-name="band bol"><path class="cls-1" d="M163.52,3.74c113.25-.12,163.7,57,163,135S225,305.16,215.18,310.52a84.47,84.47,0,0,0-8.58-1.7c23.64-22.36,52-49,73.46-78.26C346.55,139.92,324.64,14.11,163.52,3.74Z" transform="translate(-0.25)"/><path class="cls-2" d="M163.52,3.74c161.12,10.37,183,136.18,116.54,226.82-21.47,29.27-49.82,55.9-73.46,78.26-3.4-.52-7.24-1-11.39-1.32,25.75-31,54.73-60.1,72-93.39C314.33,123.1,277.08,27.18,163.52,3.74Z" transform="translate(-0.25)"/><path class="cls-3" d="M163.52,3.74C277.08,27.18,314.33,123.1,267.18,214.11c-17.24,33.29-46.22,62.38-72,93.39-4-.35-8.33-.61-12.85-.78v-.14c13.13-17.66,28.72-37.48,38.34-59.25C262.44,152.92,244.1,29.73,163.52,3.74Z" transform="translate(-0.25)"/><path class="cls-4" d="M163.52,3.74c80.58,26,98.92,149.18,57.19,243.59-9.62,21.77-25.21,41.59-38.34,59.25v.14c-3.51-.13-7.15-.21-10.87-.22C194.51,246.39,209.66,82.55,163.52,3.74Z" transform="translate(-0.25)"/><path class="cls-5" d="M163.52,3.74c46.14,78.81,31,242.65,8,302.76-5.14,0-10.43.06-15.74.29C132.72,246.68,117.38,82.55,163.52,3.74Z" transform="translate(-0.25)"/><path class="cls-6" d="M155.75,306.79c-3.38.14-6.77.34-10.14.59-12.14-17.48-25.56-32.47-34.72-51.24C64.27,160.63,80.65,30.47,163.52,3.74,117.38,82.55,132.72,246.68,155.75,306.79Z" transform="translate(-0.25)"/><path class="cls-7" d="M145.61,307.38c-4,.3-7.89.67-11.73,1.13-25.75-31-56.89-61-74-94.4C18,132.09,48.06,22.25,163.52,3.74c-82.87,26.73-99.25,156.89-52.63,252.4C120.05,274.91,133.47,289.9,145.61,307.38Z" transform="translate(-0.25)"/><path class="cls-8" d="M133.88,308.51c-3.88.46-7.67,1-11.33,1.64-23.64-22.36-54-50.32-75.51-79.59C-19.45,139.92,12,13.29,163.52,3.74,48.06,22.25,18,132.09,59.92,214.11,77,247.49,108.13,277.5,133.88,308.51Z" transform="translate(-0.25)"/><path class="cls-9" d="M122.55,310.15c-3.16.55-6.23,1.16-9.16,1.85C104.19,305.43,1,216,.26,142.47S45.72,3.86,163.52,3.74C12,13.29-19.45,139.92,47,230.56,68.51,259.83,98.91,287.79,122.55,310.15Z" transform="translate(-0.25)"/><polyline class="cls-10" points="192.06 332.31 173.32 367.05 184.58 333.36"/><line class="cls-10" x1="199.42" y1="330.44" x2="173.32" y2="367.05"/><polyline class="cls-10" points="139.09 332.45 153.65 367.05 129.87 330.44"/><line class="cls-10" x1="145.12" y1="333.36" x2="153.65" y2="367.05"/><polyline class="cls-11" points="186.18 395.45 173.32 367.05 153.65 367.05 143.06 395.45"/><path class="cls-12" d="M178.44,4.89c-13.34,1.85-25,1.19-30.79-.12S153.51.18,163,0,186.76,3.74,178.44,4.89Z" transform="translate(-0.25)"/><rect class="cls-13" x="138.08" y="395.45" width="52.86" height="2.08" rx="1.04"/><path class="cls-14" d="M199.67,330.44c-.16,3.77-67,4-69.55,0s27.37-7.06,34.77-7.06C184.82,323.37,199.8,327.53,199.67,330.44Z" transform="translate(-0.25)"/><path class="cls-15" d="M183.43,397.54H140.57v29.62A2.83,2.83,0,0,0,143.4,430h10.5C172.11,427.4,182,414.78,183.43,397.54Z" transform="translate(-0.25)"/><path class="cls-12" d="M183.43,397.54C182,414.78,172.11,427.4,153.9,430h32.22a2.84,2.84,0,0,0,2.84-2.83V397.54Z" transform="translate(-0.25)"/><path class="cls-16" d="M156.88,306.63c-3.7.14-7.36.34-10.9.58-.13,4.26,3.52,12.9,6.51,19.82q3.42-.24,7-.37C159.05,324.93,156.19,312.19,156.88,306.63Z" transform="translate(-0.25)"/><path class="cls-17" d="M113.39,312a90.46,90.46,0,0,0,16.32,18.6,70.42,70.42,0,0,1,7.53-1.78c-9.09-10.16-10.58-11.71-14.86-18.91A76,76,0,0,0,113.39,312Z" transform="translate(-0.25)"/><path class="cls-18" d="M146,307.21c-4,.28-7.83.61-11.45,1,1.52,6.08,7.19,15.94,10.94,19.44,2.25-.25,4.6-.46,7-.63C149.5,320.11,145.85,311.47,146,307.21Z" transform="translate(-0.25)"/><path class="cls-19" d="M134.53,308.22c-4.44.48-8.54,1-12.15,1.69,4.28,7.2,5.77,8.75,14.86,18.91,2.51-.45,5.28-.83,8.23-1.16C141.72,324.16,136.05,314.3,134.53,308.22Z" transform="translate(-0.25)"/><path class="cls-20" d="M170.48,306.35c-4.53,0-9.1.11-13.6.28-.69,5.56,2.17,18.3,2.57,20,3.06-.11,6.17-.15,9.25-.12C169.16,324.73,171.59,314.64,170.48,306.35Z" transform="translate(-0.25)"/><path class="cls-21" d="M206.26,308.58c-3.23-.52-6.78-.94-10.58-1.27-.45,9.05-7.5,18.85-8.63,20.37a77.9,77.9,0,0,1,8.76,1.61C197.22,327.82,206.51,317.84,206.26,308.58Z" transform="translate(-0.25)"/><path class="cls-22" d="M215.18,310.52a70.38,70.38,0,0,0-8.92-1.94c.25,9.26-9,19.24-10.45,20.71,1.38.35,2.68.73,3.86,1.15C199.67,330.44,213.93,315.39,215.18,310.52Z" transform="translate(-0.25)"/><path class="cls-23" d="M182.34,306.53c-3.87-.13-7.85-.18-11.86-.18,1.11,8.29-1.32,18.38-1.78,20.19,3,0,6,.12,8.89.28C178.33,325.19,182.87,314.86,182.34,306.53Z" transform="translate(-0.25)"/><path class="cls-24" d="M182.34,306.53c.53,8.33-4,18.66-4.75,20.29,3.3.19,6.48.48,9.46.86,1.13-1.52,8.18-11.32,8.63-20.37C191.48,306.94,187,306.69,182.34,306.53Z" transform="translate(-0.25)"/><path class="cls-15" d="M87.89,155.41a206.89,206.89,0,0,0-18.84,36.7c-3.29,7.69-8.21,22.15,3.68,29.14,10.93,6.42,19.32,4.5,27.55-13.06A252.92,252.92,0,0,1,116,180.48C98.74,173.66,91.36,164.08,87.89,155.41Z" transform="translate(-0.25)"/><path class="cls-25" d="M92.57,155.41c0-1.24,16.38-22,24.46-30.49a36,36,0,0,0-3.56-1.48,205.78,205.78,0,0,0-25.58,32c3.47,8.67,10.85,18.25,28.14,25.07.63-1,1.29-2,2-3C100.86,170.35,92.57,156.64,92.57,155.41Z" transform="translate(-0.25)"/><path class="cls-25" d="M117,124.92c-8.08,8.52-24.46,29.25-24.46,30.49s8.29,14.94,25.41,22.1a251.57,251.57,0,0,1,22.22-29.12C133.94,137.72,126.65,129.43,117,124.92Z" transform="translate(-0.25)"/><path class="cls-15" d="M177.65,102.28C170,91,161.37,85.37,141.44,99.53a206.16,206.16,0,0,0-28,23.91c11.43,4,19.73,13,26.74,24.95a119.77,119.77,0,0,1,17.37-16.18C175.71,118.83,183.51,110.87,177.65,102.28Z" transform="translate(-0.25)"/><circle class="cls-8" cx="141" cy="137.1" r="0.73"/><circle class="cls-13" cx="124.22" cy="121.29" r="0.73"/><circle class="cls-13" cx="128.29" cy="124.01" r="0.73"/><circle class="cls-13" cx="132.71" cy="128" r="0.73"/><circle class="cls-13" cx="137.13" cy="132.18" r="0.73"/><circle class="cls-13" cx="141" cy="137.1" r="0.73"/><circle class="cls-13" cx="130.23" cy="119.36" r="0.73"/><circle class="cls-13" cx="134.3" cy="122.08" r="0.73"/><circle class="cls-13" cx="138.72" cy="126.07" r="0.73"/><circle class="cls-13" cx="143.14" cy="130.25" r="0.73"/><circle class="cls-13" cx="147.01" cy="135.17" r="0.73"/><circle class="cls-13" cx="131.56" cy="112.65" r="0.73"/><circle class="cls-13" cx="135.63" cy="115.37" r="0.73"/><circle class="cls-13" cx="140.05" cy="119.36" r="0.73"/><circle class="cls-13" cx="144.47" cy="123.54" r="0.73"/><circle class="cls-13" cx="148.34" cy="128.46" r="0.73"/><circle class="cls-13" cx="137.87" cy="110.72" r="0.73"/><circle class="cls-13" cx="141.95" cy="113.44" r="0.73"/><circle class="cls-13" cx="146.37" cy="117.43" r="0.73"/><circle class="cls-13" cx="150.79" cy="121.61" r="0.73"/><circle class="cls-13" cx="154.66" cy="126.53" r="0.73"/><circle class="cls-13" cx="140.69" cy="104.8" r="0.73"/><circle class="cls-13" cx="144.76" cy="107.52" r="0.73"/><circle class="cls-13" cx="149.18" cy="111.51" r="0.73"/><circle class="cls-13" cx="153.6" cy="115.69" r="0.73"/><circle class="cls-13" cx="157.47" cy="120.61" r="0.73"/><circle class="cls-13" cx="147.84" cy="103.61" r="0.73"/><circle class="cls-13" cx="151.92" cy="106.32" r="0.73"/><circle class="cls-13" cx="156.33" cy="110.32" r="0.73"/><circle class="cls-13" cx="160.76" cy="114.5" r="0.73"/><circle class="cls-13" cx="164.63" cy="119.41" r="0.73"/><circle class="cls-13" cx="150.79" cy="98.42" r="0.73"/><circle class="cls-13" cx="154.86" cy="101.14" r="0.73"/><circle class="cls-13" cx="159.28" cy="105.13" r="0.73"/><circle class="cls-13" cx="163.7" cy="109.31" r="0.73"/><circle class="cls-13" cx="167.57" cy="114.23" r="0.73"/><circle class="cls-8" cx="106.41" cy="182.75" r="0.73"/><circle class="cls-8" cx="101.96" cy="180.71" r="0.73"/><circle class="cls-8" cx="96.97" cy="177.48" r="0.73"/><circle class="cls-8" cx="91.94" cy="174.05" r="0.73"/><circle class="cls-8" cx="87.33" cy="169.81" r="0.73"/><circle class="cls-8" cx="100.79" cy="185.61" r="0.73"/><circle class="cls-8" cx="96.34" cy="183.57" r="0.73"/><circle class="cls-8" cx="91.34" cy="180.33" r="0.73"/><circle class="cls-8" cx="86.31" cy="176.91" r="0.73"/><circle class="cls-8" cx="82.88" cy="174.05" r="0.73"/><circle class="cls-8" cx="100.54" cy="192.44" r="0.73"/><circle class="cls-8" cx="96.09" cy="190.41" r="0.73"/><circle class="cls-8" cx="91.09" cy="187.17" r="0.73"/><circle class="cls-8" cx="86.06" cy="183.74" r="0.73"/><circle class="cls-8" cx="80.97" cy="180.71" r="0.73"/><circle class="cls-8" cx="96.55" cy="197.16" r="0.73"/><circle class="cls-8" cx="91.12" cy="194.44" r="0.73"/><circle class="cls-8" cx="85.9" cy="191.52" r="0.73"/><circle class="cls-8" cx="80.64" cy="188.93" r="0.73"/><circle class="cls-8" cx="76.65" cy="185.75" r="0.73"/><circle class="cls-8" cx="94.25" cy="201.66" r="0.73"/><circle class="cls-8" cx="88.71" cy="199.16" r="0.73"/><circle class="cls-8" cx="83.37" cy="196.46" r="0.73"/><circle class="cls-8" cx="78.01" cy="194.1" r="0.73"/><circle class="cls-8" cx="73.89" cy="191.08" r="0.73"/><circle class="cls-8" cx="93.76" cy="206.94" r="0.73"/><circle class="cls-8" cx="88.22" cy="204.45" r="0.73"/><circle class="cls-8" cx="82.88" cy="201.75" r="0.73"/><circle class="cls-8" cx="77.52" cy="199.38" r="0.73"/><circle class="cls-8" cx="72.66" cy="197.2" r="0.73"/><circle class="cls-8" cx="89.66" cy="210.47" r="0.73"/><circle class="cls-8" cx="84.13" cy="207.98" r="0.73"/><circle class="cls-8" cx="78.79" cy="205.28" r="0.73"/><circle class="cls-8" cx="73.43" cy="202.91" r="0.73"/></g></g></svg>