<svg xmlns="http://www.w3.org/2000/svg" viewBox="0 0 1126.75 875.88"><defs><style>.cls-1{fill:#f9eeea;}.cls-2{fill:#f9e4db;}</style></defs><title>header_cloud_big</title><g id="Layer_2" data-name="Layer 2"><g id="bg_cloud" data-name="bg cloud"><path class="cls-1" d="M1126.75,782.16s-87.5-.5-180.5-.5-107-111-271-70c-23.79,5.94-203,76-208-23s169-85,170-178-239-35-388-35-255.06-17-249-70c4-35,37-55,192-85,149.33-28.91,120.55-100.7,50-109-34-4-54.43-10.88-59-14-22-15,2-35,21-38,56.57-8.94,328-3.57,416-10,41-3,150-6.8,147-55-5-80,249.5-96.5,359.5-94.5Z"/><path class="cls-2" d="M1126.75,61.16c-150,0-174.5,45.5-148.5,87.5s-20,87-170,96c-168.46,10.1-564.88,12.75-463,120,76,80,503.5,38.5,500.5,143.5-1.24,43.35-68,54-135,53-68.44-1-135,77,51.5,86.5,221,11.26,170.5,261.5,364.5,224.5"/></g></g></svg>