<svg xmlns="http://www.w3.org/2000/svg" viewBox="0 0 535.51 559.09"><defs><style>.cls-1{fill:#b366a9;}.cls-2{fill:#d3a2ca;}.cls-3{fill:#e7c5de;}.cls-4{fill:#9e4198;}.cls-5{fill:#f6e0ed;}.cls-6{fill:#8e3592;}.cls-7{fill:#602164;}.cls-8{fill:#3a1b50;}.cls-9{fill:#72226b;}.cls-10{fill:#f89c70;}.cls-11{fill:#f47920;}.cls-12{fill:#cc6127;}.cls-13{fill:#f6862d;}.cls-14{fill:#7f4083;}.cls-15{fill:#301044;}.cls-16{fill:#6b1d64;}.cls-17{fill:#511654;}.cls-18{fill:#8a3685;}.cls-19{fill:#d0b2c9;}.cls-20{fill:#dccad6;}.cls-21{fill:#9b5893;}.cls-22{fill:#b68cb0;}.cls-23{fill:#f47c20;}.cls-24{fill:#f79238;}.cls-25{fill:#f9a563;}.cls-26{fill:#f26a21;}.cls-27{fill:#fbba87;}.cls-28{fill:#d75a26;}.cls-29{fill:#8e3e1e;}.cls-30{fill:#693113;}.cls-31{fill:#b64d26;}.cls-32{fill:#e16025;}.cls-33{fill:#cc5624;}.cls-34{fill:#5e2a0c;}.cls-35{fill:#ab4822;}.cls-36{fill:#84391a;}.cls-37{fill:#e66420;}.cls-38{fill:#ec9d5e;}.cls-39{fill:#eeb180;}.cls-40{fill:#e7761e;}.cls-41{fill:#ea8a35;}</style></defs><title>header_balloons</title><g id="Layer_2" data-name="Layer 2"><g id="band_bol" data-name="band bol"><path class="cls-1" d="M171.25,3.91c84.4,27.23,103.6,156.25,59.9,255.13-10.08,22.8-26.4,43.57-40.17,62v.15c-3.67-.14-7.48-.22-11.37-.23C203.71,258.05,219.58,86.47,171.25,3.91Z" transform="translate(-0.25)"/><path class="cls-2" d="M171.25,3.91c118.94,24.55,157.94,125,108.57,220.33-18.06,34.87-48.4,65.33-75.37,97.82-4.21-.36-8.73-.64-13.48-.82v-.15c13.77-18.48,30.09-39.25,40.17-62C274.85,160.16,255.65,31.14,171.25,3.91Z" transform="translate(-0.25)"/><path class="cls-3" d="M171.25,3.91C340,14.78,363,146.54,293.31,241.47c-22.49,30.66-52.18,58.55-76.95,82-3.56-.55-7.56-1-11.91-1.38,27-32.49,57.31-62.95,75.37-97.82C329.19,128.93,290.19,28.46,171.25,3.91Z" transform="translate(-0.25)"/><path class="cls-4" d="M171.25,3.91c48.33,82.56,32.46,254.14,8.35,317.1-5.39,0-10.92.07-16.49.3C139,258.36,122.93,86.47,171.25,3.91Z" transform="translate(-0.25)"/><path class="cls-5" d="M171.25,3.91C289.86,3.79,342.7,63.6,341.92,145.29S235.64,319.61,225.36,325.22a87.34,87.34,0,0,0-9-1.78c24.77-23.42,54.46-51.31,76.95-82C363,146.54,340,14.78,171.25,3.91Z" transform="translate(-0.25)"/><path class="cls-6" d="M171.25,3.91c-48.32,82.56-32.26,254.45-8.14,317.4-3.54.15-7.1.36-10.63.62-12.71-18.31-26.77-34-36.36-53.67C67.3,168.23,84.46,31.91,171.25,3.91Z" transform="translate(-0.25)"/><path class="cls-7" d="M171.25,3.91C50.33,23.3,18.82,138.35,62.75,224.24c17.86,35,50.49,66.4,77.46,98.87-4.05.49-8,1.05-11.87,1.72-24.76-23.42-56.6-52.7-79.08-83.36C-20.38,146.54,12.53,13.93,171.25,3.91Z" transform="translate(-0.25)"/><path class="cls-8" d="M.26,149.21C-.52,72.24,47.87,4,171.25,3.91c-158.72,10-191.63,142.63-122,237.56,22.48,30.66,54.32,59.94,79.08,83.36-3.32.58-6.52,1.22-9.6,1.94C109.11,319.89,1.05,226.18.26,149.21Z" transform="translate(-0.25)"/><path class="cls-9" d="M62.75,224.24C18.82,138.35,50.33,23.3,171.25,3.91c-86.79,28-103.95,164.32-55.13,264.35,9.59,19.66,23.65,35.36,36.36,53.67-4.13.32-8.24.7-12.27,1.18C113.24,290.64,80.61,259.21,62.75,224.24Z" transform="translate(-0.25)"/><path class="cls-10" d="M181.78,385a.71.71,0,0,1-.21,0,.52.52,0,0,1-.29-.65L193.08,349a.52.52,0,0,1,1,.33l-9.87,29.52,16.75-31a.52.52,0,0,1,.92.5l-19.63,36.38A.53.53,0,0,1,181.78,385Z" transform="translate(-0.25)"/><path class="cls-10" d="M181.77,385a.49.49,0,0,1-.3-.1.53.53,0,0,1-.12-.73l27.34-38.33a.52.52,0,1,1,.85.6L182.2,384.73A.53.53,0,0,1,181.77,385Z" transform="translate(-0.25)"/><path class="cls-10" d="M161.17,385a.54.54,0,0,1-.44-.24l-24.9-38.34a.52.52,0,0,1,.87-.57l21.71,33.42-13-30.83a.52.52,0,0,1,1-.4l15.25,36.23a.54.54,0,0,1-.24.67A.54.54,0,0,1,161.17,385Z" transform="translate(-0.25)"/><path class="cls-10" d="M161.17,385a.52.52,0,0,1-.5-.4l-8.94-35.27a.53.53,0,0,1,1-.26l8.93,35.28a.52.52,0,0,1-.38.63Z" transform="translate(-0.25)"/><path class="cls-7" d="M150.08,415a.65.65,0,0,1-.27,0,.79.79,0,0,1-.47-1l11.1-29.75a.78.78,0,0,1,.73-.51h20.61a.79.79,0,0,1,.71.46L196,413.85a.79.79,0,0,1-1.43.65l-13.26-29.29H161.72l-10.9,29.24A.78.78,0,0,1,150.08,415Z" transform="translate(-0.25)"/><path class="cls-11" d="M186.88,5.12c-14,1.93-26.15,1.25-32.25-.13s6.14-4.8,16.07-5S195.59,3.92,186.88,5.12Z" transform="translate(-0.25)"/><rect class="cls-12" x="144.62" y="414.18" width="55.36" height="2.18" rx="1.04"/><path class="cls-12" d="M209.11,346.09c-.17,3.94-70.22,4.21-72.85,0s28.67-7.4,36.43-7.4C193.56,338.68,209.24,343,209.11,346.09Z" transform="translate(-0.25)"/><path class="cls-12" d="M171,349.66c-17,0-33.7-.94-35.17-3.29a1.41,1.41,0,0,1,0-1.49c2.28-4.11,30.27-6.72,36.91-6.72h0c18.54,0,33.26,3.4,36.28,6.55a1.94,1.94,0,0,1,.64,1.4h0c0,.66-.7,1.11-2.25,1.52C202.68,348.86,186.68,349.66,171,349.66Zm1.74-10.45h0c-7.74,0-34.15,2.86-36,6.18a.36.36,0,0,0,0,.42c.8,1.29,12.36,2.67,32.9,2.8,22.1.14,37.92-1.21,39-2.59a1.11,1.11,0,0,0-.34-.59C205.75,342.82,192,339.21,172.73,339.21Z" transform="translate(-0.25)"/><path class="cls-13" d="M192.1,416.36H147.21v31a3,3,0,0,0,3,3h11C180.25,447.63,190.62,434.42,192.1,416.36Z" transform="translate(-0.25)"/><path class="cls-11" d="M192.1,416.36c-1.48,18.06-11.85,31.27-30.93,34h33.75a3,3,0,0,0,3-3v-31Z" transform="translate(-0.25)"/><path class="cls-14" d="M164.29,321.15c-3.87.15-7.7.35-11.41.61-.13,4.46,3.68,13.5,6.82,20.76,2.38-.17,4.82-.3,7.29-.39C166.57,340.31,163.58,327,164.29,321.15Z" transform="translate(-0.25)"/><path class="cls-15" d="M118.74,326.77a95.15,95.15,0,0,0,17.1,19.49,73.28,73.28,0,0,1,7.88-1.87c-9.52-10.65-11.08-12.26-15.56-19.8A77.27,77.27,0,0,0,118.74,326.77Z" transform="translate(-0.25)"/><path class="cls-16" d="M152.88,321.76c-4.17.29-8.2.64-12,1.05,1.59,6.37,7.52,16.7,11.46,20.36,2.36-.26,4.82-.48,7.35-.65C156.56,335.26,152.75,326.22,152.88,321.76Z" transform="translate(-0.25)"/><path class="cls-17" d="M140.89,322.81c-4.65.51-8.95,1.1-12.73,1.78,4.48,7.54,6,9.15,15.56,19.8,2.64-.47,5.54-.88,8.63-1.22C148.41,339.51,142.48,329.18,140.89,322.81Z" transform="translate(-0.25)"/><path class="cls-18" d="M178.54,320.86c-4.75,0-9.53.11-14.25.29-.71,5.82,2.28,19.16,2.7,21,3.2-.12,6.45-.16,9.68-.13C177.16,340.11,179.7,329.54,178.54,320.86Z" transform="translate(-0.25)"/><path class="cls-19" d="M216,323.19c-3.38-.54-7.1-1-11.08-1.33-.47,9.47-7.85,19.74-9,21.34a79.14,79.14,0,0,1,9.17,1.68C206.55,343.35,216.28,332.89,216,323.19Z" transform="translate(-0.25)"/><path class="cls-20" d="M225.36,325.22a75.73,75.73,0,0,0-9.35-2c.27,9.7-9.46,20.16-10.95,21.69,1.46.36,3.34.77,4.57,1.21C209.63,346.09,224,330.32,225.36,325.22Z" transform="translate(-0.25)"/><path class="cls-21" d="M191,321.05c-4.06-.14-8.23-.2-12.43-.19,1.16,8.68-1.38,19.25-1.87,21.14,3.15,0,6.28.12,9.32.3C186.77,340.59,191.52,329.76,191,321.05Z" transform="translate(-0.25)"/><path class="cls-22" d="M191,321.05c.55,8.71-4.2,19.54-5,21.25,3.45.19,6.78.49,9.9.9,1.19-1.6,8.57-11.87,9-21.34C200.53,321.48,195.83,321.21,191,321.05Z" transform="translate(-0.25)"/><path class="cls-13" d="M92,162.77a216.3,216.3,0,0,0-19.73,38.44c-3.45,8-8.6,23.2,3.86,30.52,11.44,6.72,20.22,4.71,28.84-13.68a267.63,267.63,0,0,1,16.5-29C103.4,181.88,95.68,171.85,92,162.77Z" transform="translate(-0.25)"/><path class="cls-10" d="M122.56,130.83a39.47,39.47,0,0,0-3.73-1.54A215.76,215.76,0,0,0,92,162.77c3.64,9.08,11.36,19.11,29.47,26.25.66-1,1.35-2.06,2-3.1a263.17,263.17,0,0,1,23.28-30.51C140.27,144.24,132.64,135.56,122.56,130.83Z" transform="translate(-0.25)"/><path class="cls-13" d="M186.05,107.12C178,95.31,169,89.42,148.12,104.25a214.11,214.11,0,0,0-29.29,25c12,4.21,20.66,13.61,28,26.12A126.2,126.2,0,0,1,165,138.46C184,124.45,192.19,116.11,186.05,107.12Z" transform="translate(-0.25)"/><circle class="cls-7" cx="147.68" cy="143.59" r="0.77"/><circle class="cls-12" cx="130.1" cy="127.03" r="0.77"/><circle class="cls-12" cx="134.36" cy="129.88" r="0.77"/><circle class="cls-12" cx="138.99" cy="134.06" r="0.77"/><circle class="cls-12" cx="143.62" cy="138.44" r="0.77"/><circle class="cls-12" cx="147.68" cy="143.59" r="0.77"/><circle class="cls-12" cx="136.39" cy="125.01" r="0.77"/><circle class="cls-12" cx="140.66" cy="127.86" r="0.77"/><circle class="cls-12" cx="145.28" cy="132.04" r="0.77"/><circle class="cls-12" cx="149.92" cy="136.42" r="0.77"/><circle class="cls-12" cx="153.97" cy="141.57" r="0.77"/><circle class="cls-12" cx="137.79" cy="117.99" r="0.77"/><circle class="cls-12" cx="142.05" cy="120.83" r="0.77"/><circle class="cls-12" cx="146.68" cy="125.01" r="0.77"/><circle class="cls-12" cx="151.31" cy="129.39" r="0.77"/><circle class="cls-12" cx="155.37" cy="134.54" r="0.77"/><circle class="cls-12" cx="144.4" cy="115.97" r="0.77"/><circle class="cls-12" cx="148.67" cy="118.81" r="0.77"/><circle class="cls-12" cx="153.29" cy="122.99" r="0.77"/><circle class="cls-12" cx="157.93" cy="127.37" r="0.77"/><circle class="cls-12" cx="161.98" cy="132.52" r="0.77"/><circle class="cls-12" cx="147.35" cy="109.77" r="0.77"/><circle class="cls-12" cx="151.61" cy="112.61" r="0.77"/><circle class="cls-12" cx="156.24" cy="116.79" r="0.77"/><circle class="cls-12" cx="160.87" cy="121.17" r="0.77"/><circle class="cls-12" cx="164.93" cy="126.32" r="0.77"/><circle class="cls-12" cx="154.84" cy="108.51" r="0.77"/><circle class="cls-12" cx="159.11" cy="111.36" r="0.77"/><circle class="cls-12" cx="163.74" cy="115.54" r="0.77"/><circle class="cls-12" cx="168.37" cy="119.92" r="0.77"/><circle class="cls-12" cx="172.42" cy="125.07" r="0.77"/><circle class="cls-12" cx="157.93" cy="103.08" r="0.77"/><circle class="cls-12" cx="162.19" cy="105.93" r="0.77"/><circle class="cls-12" cx="166.82" cy="110.11" r="0.77"/><circle class="cls-12" cx="171.45" cy="114.49" r="0.77"/><circle class="cls-12" cx="175.51" cy="119.64" r="0.77"/><circle class="cls-12" cx="111.45" cy="191.4" r="0.77"/><circle class="cls-12" cx="106.79" cy="189.27" r="0.77"/><circle class="cls-12" cx="101.56" cy="185.88" r="0.77"/><circle class="cls-12" cx="96.29" cy="182.29" r="0.77"/><circle class="cls-12" cx="91.46" cy="177.85" r="0.77"/><circle class="cls-12" cx="105.56" cy="194.4" r="0.77"/><circle class="cls-12" cx="100.9" cy="192.27" r="0.77"/><circle class="cls-12" cx="95.66" cy="188.87" r="0.77"/><circle class="cls-12" cx="90.39" cy="185.28" r="0.77"/><circle class="cls-12" cx="86.8" cy="182.29" r="0.77"/><circle class="cls-12" cx="105.3" cy="201.56" r="0.77"/><circle class="cls-12" cx="100.63" cy="199.42" r="0.77"/><circle class="cls-12" cx="95.4" cy="196.03" r="0.77"/><circle class="cls-12" cx="90.13" cy="192.44" r="0.77"/><circle class="cls-12" cx="84.8" cy="189.27" r="0.77"/><circle class="cls-12" cx="101.12" cy="206.49" r="0.77"/><circle class="cls-12" cx="95.44" cy="203.64" r="0.77"/><circle class="cls-12" cx="89.97" cy="200.58" r="0.77"/><circle class="cls-12" cx="84.46" cy="197.88" r="0.77"/><circle class="cls-12" cx="80.27" cy="194.54" r="0.77"/><circle class="cls-12" cx="98.71" cy="211.2" r="0.77"/><circle class="cls-12" cx="92.91" cy="208.59" r="0.77"/><circle class="cls-12" cx="87.32" cy="205.77" r="0.77"/><circle class="cls-12" cx="81.7" cy="203.29" r="0.77"/><circle class="cls-12" cx="77.38" cy="200.13" r="0.77"/><circle class="cls-12" cx="98.19" cy="216.74" r="0.77"/><circle class="cls-12" cx="92.4" cy="214.13" r="0.77"/><circle class="cls-12" cx="86.8" cy="211.3" r="0.77"/><circle class="cls-12" cx="81.19" cy="208.83" r="0.77"/><circle class="cls-12" cx="76.1" cy="206.53" r="0.77"/><circle class="cls-12" cx="93.91" cy="220.43" r="0.77"/><circle class="cls-12" cx="88.11" cy="217.82" r="0.77"/><circle class="cls-12" cx="82.52" cy="215" r="0.77"/><circle class="cls-12" cx="76.9" cy="212.52" r="0.77"/><path class="cls-2" d="M416.87,518.85h0a.32.32,0,0,1-.32-.34,55.51,55.51,0,0,0-.63-9.75l-.13-.62a35.93,35.93,0,0,1-.44-16.42.33.33,0,0,1,.65.15,35.26,35.26,0,0,0,.44,16.13l.13.62a55,55,0,0,1,.64,9.91A.32.32,0,0,1,416.87,518.85Z" transform="translate(-0.25)"/><path class="cls-2" d="M414.82,517.6h-.05a.33.33,0,0,1-.28-.37c.39-2.65-.76-6-2-9.47-2.05-5.91-4.37-12.6.47-17.57a.33.33,0,0,1,.47,0,.34.34,0,0,1,0,.47c-4.55,4.68-2.4,10.88-.32,16.89,1.25,3.59,2.42,7,2,9.78A.33.33,0,0,1,414.82,517.6Z" transform="translate(-0.25)"/><path class="cls-2" d="M420.15,509.14a.33.33,0,0,1-.33-.29c-.63-4.36-3.55-5.65-6.65-7-3.95-1.75-8.43-3.74-8.36-12.54a.34.34,0,0,1,.34-.33h0a.33.33,0,0,1,.33.33c-.07,8.37,4,10.18,8,11.93,3.13,1.38,6.36,2.81,7,7.54a.34.34,0,0,1-.28.38Z" transform="translate(-0.25)"/><path class="cls-23" d="M427.34,272.44c53.61,17.29,65.81,99.26,38.05,162.07-6.4,14.48-16.77,27.67-25.51,39.42V474c-2.33-.08-4.75-.14-7.23-.14C448,433.88,458,324.88,427.34,272.44Z" transform="translate(-0.25)"/><path class="cls-24" d="M427.34,272.44c75.55,15.6,100.34,79.42,69,140-11.47,22.15-30.75,41.5-47.89,62.13-2.66-.23-5.54-.4-8.55-.52v-.09c8.74-11.75,19.11-24.94,25.51-39.42C493.15,371.7,481,289.73,427.34,272.44Z" transform="translate(-0.25)"/><path class="cls-25" d="M427.34,272.44c107.2,6.9,121.77,90.61,77.54,150.91-14.29,19.48-33.15,37.19-48.88,52.07-2.26-.35-4.81-.64-7.58-.88,17.14-20.63,36.42-40,47.89-62.13C527.68,351.86,502.89,288,427.34,272.44Z" transform="translate(-0.25)"/><path class="cls-26" d="M427.34,272.44c30.7,52.44,20.62,161.44,5.3,201.44-3.42,0-6.94,0-10.47.19C406.85,434.08,396.64,324.88,427.34,272.44Z" transform="translate(-0.25)"/><path class="cls-27" d="M427.34,272.44c75.35-.08,108.91,37.92,108.42,89.81S468.24,473,461.71,476.55a55.43,55.43,0,0,0-5.71-1.13c15.73-14.88,34.59-32.59,48.88-52.07C549.11,363.05,534.54,279.34,427.34,272.44Z" transform="translate(-0.25)"/><path class="cls-28" d="M427.34,272.44c-30.7,52.44-20.49,161.64-5.17,201.63-2.25.09-4.5.23-6.75.39-8.07-11.63-17-21.6-23.1-34.09C361.31,376.83,372.2,290.23,427.34,272.44Z" transform="translate(-0.25)"/><path class="cls-29" d="M427.34,272.44c-76.82,12.32-96.83,85.4-68.93,140,11.36,22.21,32.08,42.17,49.21,62.8-2.58.31-5.1.68-7.54,1.1-15.73-14.88-35.95-33.48-50.24-53C305.6,363.05,326.51,278.8,427.34,272.44Z" transform="translate(-0.25)"/><path class="cls-30" d="M318.72,364.74c-.5-48.89,30.24-92.22,108.62-92.3-100.83,6.36-121.74,90.61-77.5,150.91,14.29,19.48,34.51,38.08,50.24,53-2.1.36-4.14.77-6.09,1.23C387.87,473.17,319.22,413.64,318.72,364.74Z" transform="translate(-0.25)"/><path class="cls-31" d="M427.34,272.44c-55.14,17.79-66,104.39-35,167.93,6.1,12.49,15,22.46,23.1,34.09-2.63.2-5.25.45-7.8.75-17.13-20.63-37.85-40.59-49.21-62.8C330.51,357.84,350.52,284.76,427.34,272.44Z" transform="translate(-0.25)"/><path class="cls-2" d="M434,514.49l-.14,0a.34.34,0,0,1-.18-.42l7.5-22.41a.34.34,0,0,1,.42-.21.35.35,0,0,1,.21.43l-6.28,18.75,10.64-19.72a.34.34,0,0,1,.45-.14.33.33,0,0,1,.14.45l-12.47,23.12A.34.34,0,0,1,434,514.49Z" transform="translate(-0.25)"/><path class="cls-2" d="M434,514.49a.36.36,0,0,1-.2-.06.33.33,0,0,1-.08-.46l17.37-24.36a.33.33,0,0,1,.46-.07.32.32,0,0,1,.08.46L434.3,514.35A.35.35,0,0,1,434,514.49Z" transform="translate(-0.25)"/><path class="cls-32" d="M418.39,537h-.08a.51.51,0,0,1-.42-.57l3.2-19.92a.5.5,0,0,1,.39-.41l12.83-2.57a.5.5,0,0,1,.51.2l12.11,16.85a.5.5,0,0,1-.12.69.51.51,0,0,1-.7-.11L434.2,514.6,422,517l-3.14,19.58A.5.5,0,0,1,418.39,537Z" transform="translate(-0.25)"/><path class="cls-9" d="M437.27,273.21c-8.88,1.23-16.61.79-20.49-.08s3.9-3.06,10.21-3.17S442.8,272.44,437.27,273.21Z" transform="translate(-0.25)"/><rect class="cls-8" x="414.93" y="533.72" width="35.17" height="1.39" rx="0.62" transform="translate(-96.86 95.44) rotate(-11.34)"/><path class="cls-8" d="M451.39,489.81c-.11,2.5-44.61,2.67-46.27,0s18.21-4.7,23.13-4.71C441.51,485.1,451.48,487.87,451.39,489.81Z" transform="translate(-0.25)"/><path class="cls-8" d="M427.17,492.08c-10.82,0-21.41-.6-22.34-2.1a.91.91,0,0,1,0-.94c1.46-2.61,19.23-4.27,23.45-4.27h0c11.77,0,21.12,2.16,23,4.16a1.19,1.19,0,0,1,.4.89h0c0,.42-.44.71-1.42,1C447.3,491.57,437.14,492.08,427.17,492.08Zm1.11-6.64h0c-4.92,0-21.69,1.81-22.86,3.93a.21.21,0,0,0,0,.26c.51.82,7.85,1.69,20.9,1.78,14,.1,24.09-.77,24.76-1.64a.66.66,0,0,0-.22-.38C449.25,487.73,440.53,485.44,428.28,485.44Z" transform="translate(-0.25)"/><path class="cls-4" d="M444.83,532.65l-28,5.61,3.87,19.32a1.89,1.89,0,0,0,2.22,1.48l6.85-1.38C441.36,553.61,446.17,544.09,444.83,532.65Z" transform="translate(-0.25)"/><path class="cls-9" d="M444.83,532.65c1.34,11.44-3.47,21-15,25l21-4.21a1.88,1.88,0,0,0,1.48-2.22l-3.87-19.32Z" transform="translate(-0.25)"/><path class="cls-33" d="M422.92,474c-2.46.1-4.89.23-7.25.39-.08,2.83,2.34,8.58,4.33,13.19,1.51-.11,3.06-.19,4.63-.25C424.37,486.14,422.47,477.66,422.92,474Z" transform="translate(-0.25)"/><path class="cls-34" d="M394,477.54a60.47,60.47,0,0,0,10.86,12.37,47.42,47.42,0,0,1,5-1.18c-6-6.77-7-7.79-9.88-12.58A48.16,48.16,0,0,0,394,477.54Z" transform="translate(-0.25)"/><path class="cls-35" d="M415.67,474.35c-2.65.18-5.21.41-7.62.67,1,4.05,4.78,10.61,7.28,12.94,1.5-.17,3.06-.31,4.67-.42C418,482.93,415.59,477.18,415.67,474.35Z" transform="translate(-0.25)"/><path class="cls-36" d="M408.05,475c-2.95.32-5.68.7-8.08,1.13,2.85,4.79,3.84,5.81,9.88,12.58,1.68-.3,3.52-.56,5.48-.77C412.83,485.63,409.07,479.07,408.05,475Z" transform="translate(-0.25)"/><path class="cls-37" d="M432,473.78c-3,0-6.05.07-9.05.18-.45,3.7,1.45,12.18,1.71,13.33,2-.07,4.1-.1,6.16-.08C431.09,486,432.71,479.29,432,473.78Z" transform="translate(-0.25)"/><path class="cls-38" d="M455.78,475.26c-2.15-.34-4.52-.62-7-.84-.3,6-5,12.54-5.75,13.55a51.36,51.36,0,0,1,5.83,1.07C449.76,488.06,455.94,481.43,455.78,475.26Z" transform="translate(-0.25)"/><path class="cls-39" d="M461.71,476.55a48.24,48.24,0,0,0-5.93-1.29c.16,6.17-6,12.8-7,13.78.92.23,2.11.42,2.9.7C451.72,489.74,460.88,479.79,461.71,476.55Z" transform="translate(-0.25)"/><path class="cls-40" d="M439.86,473.9c-2.57-.09-5.22-.13-7.89-.12.74,5.51-.88,12.23-1.18,13.43,2,0,4,.08,5.91.19C437.2,486.31,440.22,479.44,439.86,473.9Z" transform="translate(-0.25)"/><path class="cls-41" d="M439.86,473.9c.36,5.54-2.66,12.41-3.16,13.5,2.19.12,4.31.31,6.29.57.76-1,5.45-7.54,5.75-13.55C445.94,474.17,443,474,439.86,473.9Z" transform="translate(-0.25)"/><circle class="cls-7" cx="412.27" cy="361.17" r="0.49"/></g></g></svg>