<svg xmlns="http://www.w3.org/2000/svg" viewBox="0 0 711 503.63"><defs><style>.cls-1{fill:#f9e4db;}.cls-2{fill:#f9eeea;}</style></defs><title>header_cloud_small</title><g id="Layer_2" data-name="Layer 2"><g id="beeld"><path class="cls-1" d="M0,.63c89-10,124,103,124,103,30,56,95,56,128,58,61.92,3.75,142,74,132,99s-384,107-384,107Z"/><path class="cls-2" d="M0,130.63c160,0,100.33,91.6,265.5,60.5,223-42,169,132.27,305,139,101,5,134,26,140,53,7,31.54-61.14,39.61-99,44-233,27-321-91-402,0-65,73.05-191.5,76.5-209.5,76.5Z"/></g></g></svg>