<svg xmlns="http://www.w3.org/2000/svg" viewBox="0 0 326.23 434.58"><defs><style>.cls-1,.cls-11{fill:none;stroke-linecap:round;stroke-linejoin:round;}.cls-1{stroke:#d3a2ca;}.cls-2{fill:#fbba87;}.cls-3{fill:#f9a563;}.cls-4{fill:#f79238;}.cls-5{fill:#f47c20;}.cls-6{fill:#f26a21;}.cls-7{fill:#d75a26;}.cls-8{fill:#b64d26;}.cls-9{fill:#8e3e1e;}.cls-10{fill:#693113;}.cls-11{stroke:#e16025;stroke-width:1.5px;}.cls-12{fill:#72226b;}.cls-13,.cls-14{fill:#3a1b50;}.cls-14{stroke:#3a1b50;stroke-miterlimit:10;}.cls-15{fill:#9e4198;}.cls-16{fill:#cc5624;}.cls-17{fill:#5e2a0c;}.cls-18{fill:#ab4822;}.cls-19{fill:#84391a;}.cls-20{fill:#e66420;}.cls-21{fill:#ec9d5e;}.cls-22{fill:#eeb180;}.cls-23{fill:#e7761e;}.cls-24{fill:#ea8a35;}.cls-25{fill:#602164;}</style></defs><title>header_balloon_orange</title><g id="Layer_2" data-name="Layer 2"><g id="band_bol" data-name="band bol"><path class="cls-1" d="M146,333.43c-2.51,11-.31,19.9.85,25.4s.95,14.77.95,14.77" transform="translate(-0.25)"/><path class="cls-1" d="M142.29,331.35c-11.25,11.56,4,29.39,2.41,40.36" transform="translate(-0.25)"/><path class="cls-1" d="M130.16,329.67c-.19,23.11,20.33,13.86,22.55,29.33" transform="translate(-0.25)"/><path class="cls-2" d="M163.52,3.74c113.25-.12,163.7,57,163,135S225,305.16,215.18,310.52a84.47,84.47,0,0,0-8.58-1.7c23.64-22.36,52-49,73.46-78.26C346.55,139.92,324.64,14.11,163.52,3.74Z" transform="translate(-0.25)"/><path class="cls-3" d="M163.52,3.74c161.12,10.37,183,136.18,116.54,226.82-21.47,29.27-49.82,55.9-73.46,78.26-3.4-.52-7.24-1-11.39-1.32,25.75-31,54.73-60.1,72-93.39C314.33,123.1,277.08,27.18,163.52,3.74Z" transform="translate(-0.25)"/><path class="cls-4" d="M163.52,3.74C277.08,27.18,314.33,123.1,267.18,214.11c-17.24,33.29-46.22,62.38-72,93.39-4-.35-8.33-.61-12.85-.78v-.14c13.13-17.66,28.72-37.48,38.34-59.25C262.44,152.92,244.1,29.73,163.52,3.74Z" transform="translate(-0.25)"/><path class="cls-5" d="M163.52,3.74c80.58,26,98.92,149.18,57.19,243.59-9.62,21.77-25.21,41.59-38.34,59.25v.14c-3.51-.13-7.15-.21-10.87-.22C194.51,246.39,209.66,82.55,163.52,3.74Z" transform="translate(-0.25)"/><path class="cls-6" d="M163.52,3.74c46.14,78.81,31,242.65,8,302.76-5.14,0-10.43.06-15.74.29C132.72,246.68,117.38,82.55,163.52,3.74Z" transform="translate(-0.25)"/><path class="cls-7" d="M155.75,306.79c-3.38.14-6.77.34-10.14.59-12.14-17.48-25.56-32.47-34.72-51.24C64.27,160.63,80.65,30.47,163.52,3.74,117.38,82.55,132.72,246.68,155.75,306.79Z" transform="translate(-0.25)"/><path class="cls-8" d="M145.61,307.38c-4,.3-7.89.67-11.73,1.13-25.75-31-56.89-61-74-94.4C18,132.09,48.06,22.25,163.52,3.74c-82.87,26.73-99.25,156.89-52.63,252.4C120.05,274.91,133.47,289.9,145.61,307.38Z" transform="translate(-0.25)"/><path class="cls-9" d="M133.88,308.51c-3.88.46-7.67,1-11.33,1.64-23.64-22.36-54-50.32-75.51-79.59C-19.45,139.92,12,13.29,163.52,3.74,48.06,22.25,18,132.09,59.92,214.11,77,247.49,108.13,277.5,133.88,308.51Z" transform="translate(-0.25)"/><path class="cls-10" d="M122.55,310.15c-3.16.55-6.23,1.16-9.16,1.85C104.19,305.43,1,216,.26,142.47S45.72,3.86,163.52,3.74C12,13.29-19.45,139.92,47,230.56,68.51,259.83,98.91,287.79,122.55,310.15Z" transform="translate(-0.25)"/><polyline class="cls-1" points="192.06 332.31 173.32 367.05 184.58 333.36"/><line class="cls-1" x1="199.42" y1="330.44" x2="173.32" y2="367.05"/><polyline class="cls-11" points="192.1 392.2 173.9 366.88 154.61 370.75 149.81 400.68"/><path class="cls-12" d="M178.44,4.89c-13.34,1.85-25,1.19-30.79-.12S153.51.18,163,0,186.76,3.74,178.44,4.89Z" transform="translate(-0.25)"/><rect class="cls-13" x="144.88" y="396.44" width="52.86" height="2.08" rx="1.04" transform="translate(-75.04 41.42) rotate(-11.34)"/><path class="cls-14" d="M199.67,330.44c-.16,3.77-67,4-69.55,0s27.37-7.06,34.77-7.06C184.82,323.37,199.8,327.53,199.67,330.44Z" transform="translate(-0.25)"/><path class="cls-15" d="M189.81,394.84l-42,8.42,5.83,29.05a2.83,2.83,0,0,0,3.33,2.22l10.3-2.07C184.59,426.34,191.82,412,189.81,394.84Z" transform="translate(-0.25)"/><path class="cls-12" d="M189.81,394.84c2,17.19-5.22,31.5-22.57,37.62l31.59-6.33a2.83,2.83,0,0,0,2.22-3.34l-5.82-29Z" transform="translate(-0.25)"/><path class="cls-16" d="M156.88,306.63c-3.7.14-7.36.34-10.9.58-.13,4.26,3.52,12.9,6.51,19.82q3.42-.24,7-.37C159.05,324.93,156.19,312.19,156.88,306.63Z" transform="translate(-0.25)"/><path class="cls-17" d="M113.39,312a90.46,90.46,0,0,0,16.32,18.6,70.42,70.42,0,0,1,7.53-1.78c-9.09-10.16-10.58-11.71-14.86-18.91A76,76,0,0,0,113.39,312Z" transform="translate(-0.25)"/><path class="cls-18" d="M146,307.21c-4,.28-7.83.61-11.45,1,1.52,6.08,7.19,15.94,10.94,19.44,2.25-.25,4.6-.46,7-.63C149.5,320.11,145.85,311.47,146,307.21Z" transform="translate(-0.25)"/><path class="cls-19" d="M134.53,308.22c-4.44.48-8.54,1-12.15,1.69,4.28,7.2,5.77,8.75,14.86,18.91,2.51-.45,5.28-.83,8.23-1.16C141.72,324.16,136.05,314.3,134.53,308.22Z" transform="translate(-0.25)"/><path class="cls-20" d="M170.48,306.35c-4.53,0-9.1.11-13.6.28-.69,5.56,2.17,18.3,2.57,20,3.06-.11,6.17-.15,9.25-.12C169.16,324.73,171.59,314.64,170.48,306.35Z" transform="translate(-0.25)"/><path class="cls-21" d="M206.26,308.58c-3.23-.52-6.78-.94-10.58-1.27-.45,9.05-7.5,18.85-8.63,20.37a77.9,77.9,0,0,1,8.76,1.61C197.22,327.82,206.51,317.84,206.26,308.58Z" transform="translate(-0.25)"/><path class="cls-22" d="M215.18,310.52a70.38,70.38,0,0,0-8.92-1.94c.25,9.26-9,19.24-10.45,20.71,1.38.35,2.68.73,3.86,1.15C199.67,330.44,213.93,315.39,215.18,310.52Z" transform="translate(-0.25)"/><path class="cls-23" d="M182.34,306.53c-3.87-.13-7.85-.18-11.86-.18,1.11,8.29-1.32,18.38-1.78,20.19,3,0,6,.12,8.89.28C178.33,325.19,182.87,314.86,182.34,306.53Z" transform="translate(-0.25)"/><path class="cls-24" d="M182.34,306.53c.53,8.33-4,18.66-4.75,20.29,3.3.19,6.48.48,9.46.86,1.13-1.52,8.18-11.32,8.63-20.37C191.48,306.94,187,306.69,182.34,306.53Z" transform="translate(-0.25)"/><circle class="cls-25" cx="141" cy="137.1" r="0.73"/></g></g></svg>