<svg xmlns="http://www.w3.org/2000/svg" viewBox="0 0 328.21 234.8"><defs><style>.cls-1{fill:#f9eeea;}.cls-2{fill:#3a1b50;}.cls-3{fill:#72226b;}.cls-17,.cls-4{fill:#cc6127;}.cls-5{fill:#e16025;}.cls-6{fill:#602164;}.cls-7{fill:#d3a2ca;}.cls-8{fill:#f6862d;}.cls-9{fill:#f47920;}.cls-10{fill:#b366a9;}.cls-11{fill:#e7c5de;}.cls-12{fill:#9e4198;}.cls-13{fill:#f6e0ed;}.cls-14{fill:#8e3592;}.cls-15,.cls-16{fill:none;stroke-linecap:round;stroke-linejoin:round;}.cls-15{stroke:#f89c70;stroke-width:0.5px;}.cls-16{stroke:#602164;}.cls-17{stroke:#cc6127;stroke-miterlimit:10;}.cls-18{fill:#7f4083;}.cls-19{fill:#301044;}.cls-20{fill:#6b1d64;}.cls-21{fill:#511654;}.cls-22{fill:#8a3685;}.cls-23{fill:#d0b2c9;}.cls-24{fill:#dccad6;}.cls-25{fill:#9b5893;}.cls-26{fill:#b68cb0;}.cls-27{fill:#f89c70;}</style></defs><title>houston</title><g id="Layer_2" data-name="Layer 2"><g id="final_design" data-name="final design"><path class="cls-1" d="M4.41,131.88C-5.81,161-6.43,256.78,96.05,218.54c113.6-42.38,97.2,34,177.81,6.6,36.51-12.4,39.52-55.58,18.26-95.27-13.21-24.67,17.81-83.82-38-100.2-37.47-11-76.21,33.57-160.38,24.17C30.41,46.78,12.21,109.62,4.41,131.88Z"/><path class="cls-1" d="M309.08,110.6c12.9-6.44,22.85,4.32,17.79,18.7s-13.43,7-12.27,0c.59-3.49-2.2-7.48-5.52-8.65S302.9,113.69,309.08,110.6Z"/><path class="cls-1" d="M24.2,55c-6.44-12.89,4.32-22.84,18.7-17.79s7,13.44,0,12.27c-3.5-.58-7.48,2.2-8.66,5.52C33,58.43,27.29,61.13,24.2,55Z"/><path class="cls-2" d="M158,223.36H174V161.83A2.86,2.86,0,0,0,171.1,159H103a2.86,2.86,0,0,0-2.86,2.87v61.53h19a2.89,2.89,0,0,0,2.63-1.72c3.49-7.87,7.68-13.54,15.88-13.41s15.53,5.25,17.61,13A2.84,2.84,0,0,0,158,223.36Z"/><path class="cls-2" d="M76.37,223.27H98.32a1.82,1.82,0,0,0,1.83-1.82v-46.9a1.82,1.82,0,0,0-1.83-1.82H72.69A7.53,7.53,0,0,0,67,175.36l-12.89,15a1.84,1.84,0,0,1-1,.6l-24.37,4.74a1.81,1.81,0,0,0-1.47,1.78v23.92A1.81,1.81,0,0,0,29,223.27h9.32a1.81,1.81,0,0,0,1.72-1.22c2.83-8,3.8-12.2,16.26-14.17,11.34-1.79,16.94,10.13,18.33,14.17A1.8,1.8,0,0,0,76.37,223.27Z"/><path class="cls-3" d="M81.35,170.8H86.7a1.51,1.51,0,0,1,1.51,1.51v.42a0,0,0,0,1,0,0H79.84a0,0,0,0,1,0,0v-.42A1.51,1.51,0,0,1,81.35,170.8Z"/><path class="cls-4" d="M82.8,166.27h2.45a2.35,2.35,0,0,1,2.35,2.35v2.18a0,0,0,0,1,0,0H80.46a0,0,0,0,1,0,0v-2.18A2.35,2.35,0,0,1,82.8,166.27Z"/><circle class="cls-2" cx="58.06" cy="223.27" r="11.44"/><circle class="cls-2" cx="138.37" cy="223.36" r="11.44"/><path class="cls-4" d="M173.85,173.63H174a0,0,0,0,1,0,0v17.53a0,0,0,0,1,0,0h-.11a2,2,0,0,1-2-2V175.63a2,2,0,0,1,2-2Z"/><rect class="cls-5" x="134.58" y="167.19" width="7.58" height="21.78"/><rect class="cls-5" x="134.58" y="167.19" width="7.58" height="21.78" transform="translate(-39.71 316.45) rotate(-90)"/><path class="cls-6" d="M61.61,203.34c8.86.93,15,7.2,16.06,13.66h17.9V190.31h-34Z"/><path class="cls-7" d="M73.23,179,61.61,190.31h34V179a1.08,1.08,0,0,0-1.09-1.08l-19,.18A3.23,3.23,0,0,0,73.23,179Z"/><path class="cls-8" d="M25.11,219.41H43.3a0,0,0,0,1,0,0V224a1.84,1.84,0,0,1-1.84,1.84H24.77A1.78,1.78,0,0,1,23,224.1v-2.56A2.12,2.12,0,0,1,25.11,219.41Z"/><path class="cls-8" d="M122.41,225.88H74.82a1.9,1.9,0,0,1-1.9-1.9v-2.31H124.3V224A1.89,1.89,0,0,1,122.41,225.88Z"/><path class="cls-8" d="M177.46,223.46a1.8,1.8,0,0,0-1.8-1.79H153.22V224A1.79,1.79,0,0,0,155,225.8h20.65a1.8,1.8,0,0,0,1.8-1.79Z"/><path class="cls-5" d="M43.3,219.41c1.34-5.17,8.32-10.14,14.14-10.14a16.06,16.06,0,0,1,15.48,12.4h2.63c-2.19-8.61-8.11-14.84-17.49-14.85s-15.37,5.47-17.44,12.59Z"/><path class="cls-5" d="M119.17,221.67a19.77,19.77,0,0,1,38.39,0h-4.34a15,15,0,0,0-14.52-11.88,14.81,14.81,0,0,0-14.4,11.88"/><rect class="cls-3" x="27.2" y="197.2" width="146.77" height="7.66"/><path class="cls-4" d="M27.2,200.14h.89a4.48,4.48,0,0,1,4.48,4.48v.23a0,0,0,0,1,0,0H27.2a0,0,0,0,1,0,0v-4.71A0,0,0,0,1,27.2,200.14Z"/><circle class="cls-3" cx="58.06" cy="223.27" r="7.23"/><circle class="cls-2" cx="58.06" cy="223.27" r="0.93"/><circle class="cls-3" cx="138.37" cy="223.36" r="7.23"/><circle class="cls-2" cx="138.37" cy="223.36" r="0.93"/><rect class="cls-9" x="86.99" y="200.08" width="5.16" height="1.06" rx="0.53"/><path class="cls-2" d="M62,190a1,1,0,0,0-.35.78c0,.13-.81-.16-.81-.16l.12-.82Z"/><path class="cls-9" d="M65.59,192.32a.28.28,0,0,1-.32.28,2.31,2.31,0,0,1,0-4.57.28.28,0,0,1,.32.28Z"/><path class="cls-10" d="M220.62,1.93c41.52,13.39,51,76.86,29.47,125.5-5,11.22-13,21.43-19.76,30.53V158c-1.81-.06-3.69-.11-5.6-.11C236.59,127,244.39,42.53,220.62,1.93Z"/><path class="cls-7" d="M220.62,1.93C279.14,14,298.32,63.43,274,110.32c-8.88,17.15-23.81,32.14-37.08,48.12-2.07-.19-4.29-.32-6.62-.41V158c6.77-9.1,14.8-19.31,19.76-30.53C271.59,78.79,262.14,15.32,220.62,1.93Z"/><path class="cls-11" d="M274,110.32C298.32,63.43,279.14,14,220.62,1.93c83,5.34,94.3,70.16,60.05,116.86-11.07,15.08-25.67,28.8-37.85,40.33-1.75-.27-3.73-.5-5.87-.68C250.22,142.46,265.15,127.47,274,110.32Z"/><path class="cls-12" d="M216.62,158.07c-11.87-31-19.77-115.54,4-156.14,23.77,40.6,16,125,4.11,156C222.08,157.9,219.35,158,216.62,158.07Z"/><path class="cls-13" d="M220.62,1.93c58.36-.07,84.34,29.36,84,69.54S252.3,157.23,247.24,160a43.28,43.28,0,0,0-4.42-.87c12.18-11.53,26.78-25.25,37.85-40.33C314.92,72.09,303.64,7.27,220.62,1.93Z"/><path class="cls-14" d="M220.62,1.93c-23.77,40.6-15.87,125.17-4,156.14-1.74.07-3.49.17-5.23.3-6.25-9-13.17-16.73-17.89-26.4C169.48,82.76,177.92,15.7,220.62,1.93Z"/><path class="cls-6" d="M220.62,1.93c-59.49,9.53-75,66.13-53.38,108.39C176,127.52,192.08,143,205.35,159c-2,.23-3.95.52-5.84.84-12.18-11.52-27.84-25.93-38.9-41C126.35,72.09,142.54,6.85,220.62,1.93Z"/><path class="cls-2" d="M136.5,73.41C136.12,35.54,159.93,2,220.62,1.93c-78.08,4.92-94.27,70.16-60,116.86,11.06,15.08,26.72,29.49,38.9,41-1.63.28-3.21.6-4.72.95C190.05,157.37,136.89,111.27,136.5,73.41Z"/><path class="cls-3" d="M167.24,110.32c-21.61-42.26-6.11-98.86,53.38-108.39-42.7,13.77-51.14,80.83-27.12,130,4.72,9.67,11.64,17.4,17.89,26.4-2,.16-4.06.35-6,.59C192.08,143,176,127.52,167.24,110.32Z"/><polyline class="cls-15" points="235.46 171.22 225.8 189.12 231.6 171.76"/><line class="cls-15" x1="239.25" y1="170.26" x2="225.8" y2="189.12"/><polyline class="cls-15" points="208.16 171.29 215.66 189.12 203.41 170.26"/><line class="cls-15" x1="211.27" y1="171.76" x2="215.66" y2="189.12"/><polyline class="cls-16" points="232.43 203.75 225.8 189.12 215.66 189.12 210.21 203.75"/><path class="cls-9" d="M228.31,2.52c-6.88,1-12.86.62-15.86-.06s3-2.37,7.9-2.46S232.6,1.93,228.31,2.52Z"/><rect class="cls-4" x="207.64" y="203.75" width="27.23" height="1.07" rx="0.54"/><path class="cls-17" d="M239.25,170.26c-.09,1.94-34.55,2.07-35.84,0s14.1-3.64,17.92-3.64C231.59,166.61,239.31,168.75,239.25,170.26Z"/><path class="cls-8" d="M230.88,204.83H208.79v15.26a1.47,1.47,0,0,0,1.46,1.46h5.41C225.05,220.21,230.15,213.71,230.88,204.83Z"/><path class="cls-9" d="M230.88,204.83c-.73,8.88-5.83,15.38-15.22,16.72h16.61a1.47,1.47,0,0,0,1.46-1.46V204.83Z"/><path class="cls-18" d="M217.2,158c-1.91.07-3.79.17-5.62.3-.06,2.19,1.82,6.64,3.36,10.21,1.17-.08,2.37-.15,3.58-.19C218.32,167.42,216.85,160.85,217.2,158Z"/><path class="cls-19" d="M194.79,160.76a46.61,46.61,0,0,0,8.41,9.58,36.74,36.74,0,0,1,3.88-.92c-4.68-5.24-5.45-6-7.66-9.74A36.52,36.52,0,0,0,194.79,160.76Z"/><path class="cls-20" d="M211.58,158.29c-2.05.14-4,.31-5.89.51a26.81,26.81,0,0,0,5.63,10c1.16-.12,2.37-.23,3.62-.32C213.4,164.93,211.52,160.48,211.58,158.29Z"/><path class="cls-21" d="M205.69,158.8c-2.29.25-4.41.55-6.27.88,2.21,3.71,3,4.5,7.66,9.74,1.29-.23,2.72-.43,4.24-.6A26.81,26.81,0,0,1,205.69,158.8Z"/><path class="cls-22" d="M224.21,157.85c-2.34,0-4.69.05-7,.14-.35,2.86,1.12,9.43,1.32,10.32,1.58-.06,3.18-.08,4.77-.07A31.35,31.35,0,0,0,224.21,157.85Z"/><path class="cls-23" d="M242.64,159c-1.66-.26-3.49-.48-5.45-.65-.23,4.66-3.86,9.71-4.45,10.49a40.83,40.83,0,0,1,4.52.83C238,168.91,242.77,163.77,242.64,159Z"/><path class="cls-24" d="M247.24,160a37,37,0,0,0-4.6-1c.13,4.78-4.66,9.92-5.38,10.67.71.18,1.38.38,2,.6C239.25,170.26,246.59,162.5,247.24,160Z"/><path class="cls-25" d="M230.32,157.94c-2-.07-4-.1-6.11-.09a31.35,31.35,0,0,1-.92,10.39c1.55,0,3.09.06,4.58.15C228.25,167.55,230.59,162.23,230.32,157.94Z"/><path class="cls-26" d="M230.32,157.94c.27,4.29-2.07,9.61-2.45,10.45,1.7.1,3.34.24,4.87.44.59-.78,4.22-5.83,4.45-10.49C235,158.15,232.71,158,230.32,157.94Z"/><path class="cls-8" d="M181.65,80.07A106.53,106.53,0,0,0,172,99c-1.7,4-4.24,11.42,1.89,15,5.63,3.3,10,2.31,14.2-6.73A129.66,129.66,0,0,1,196.15,93C187.24,89.47,183.44,84.54,181.65,80.07Z"/><path class="cls-27" d="M184.07,80.07c0-.64,8.44-11.31,12.6-15.71a19.76,19.76,0,0,0-1.84-.76,106.55,106.55,0,0,0-13.18,16.47c1.79,4.47,5.59,9.4,14.5,12.92l1-1.53C188.34,87.77,184.07,80.71,184.07,80.07Z"/><path class="cls-27" d="M196.67,64.36c-4.16,4.4-12.6,15.07-12.6,15.71s4.27,7.7,13.08,11.39a129,129,0,0,1,11.46-15C205.38,71,201.63,66.69,196.67,64.36Z"/><path class="cls-8" d="M227.9,52.7c-4-5.81-8.39-8.71-18.66-1.42A106.49,106.49,0,0,0,194.83,63.6c5.89,2.07,10.16,6.7,13.78,12.85a62.29,62.29,0,0,1,8.94-8.33C226.9,61.22,230.92,57.12,227.9,52.7Z"/><circle class="cls-6" cx="209.15" cy="70.64" r="0.38"/><circle class="cls-4" cx="200.5" cy="62.49" r="0.38"/><circle class="cls-4" cx="202.6" cy="63.89" r="0.38"/><circle class="cls-4" cx="204.88" cy="65.95" r="0.38"/><circle class="cls-4" cx="207.15" cy="68.11" r="0.38"/><circle class="cls-4" cx="209.15" cy="70.64" r="0.38"/><circle class="cls-4" cx="203.6" cy="61.5" r="0.38"/><circle class="cls-4" cx="205.69" cy="62.9" r="0.38"/><circle class="cls-4" cx="207.97" cy="64.96" r="0.38"/><circle class="cls-4" cx="210.25" cy="67.11" r="0.38"/><circle class="cls-4" cx="212.24" cy="69.64" r="0.38"/><circle class="cls-4" cx="204.28" cy="58.04" r="0.38"/><circle class="cls-4" cx="206.38" cy="59.44" r="0.38"/><circle class="cls-4" cx="208.66" cy="61.5" r="0.38"/><circle class="cls-4" cx="210.94" cy="63.65" r="0.38"/><circle class="cls-4" cx="212.93" cy="66.19" r="0.38"/><circle class="cls-4" cx="207.54" cy="57.05" r="0.38"/><circle class="cls-4" cx="209.64" cy="58.45" r="0.38"/><circle class="cls-4" cx="211.91" cy="60.51" r="0.38"/><circle class="cls-4" cx="214.19" cy="62.66" r="0.38"/><circle class="cls-4" cx="216.19" cy="65.19" r="0.38"/><circle class="cls-4" cx="208.99" cy="54" r="0.38"/><circle class="cls-4" cx="211.08" cy="55.4" r="0.38"/><circle class="cls-4" cx="213.36" cy="57.45" r="0.38"/><circle class="cls-4" cx="215.64" cy="59.61" r="0.38"/><circle class="cls-4" cx="217.63" cy="62.14" r="0.38"/><circle class="cls-4" cx="212.67" cy="53.38" r="0.38"/><circle class="cls-4" cx="214.77" cy="54.78" r="0.38"/><circle class="cls-4" cx="217.05" cy="56.84" r="0.38"/><circle class="cls-4" cx="219.33" cy="58.99" r="0.38"/><circle class="cls-4" cx="221.32" cy="61.53" r="0.38"/><circle class="cls-4" cx="214.19" cy="50.71" r="0.38"/><circle class="cls-4" cx="216.29" cy="52.11" r="0.38"/><circle class="cls-4" cx="218.56" cy="54.17" r="0.38"/><circle class="cls-4" cx="220.84" cy="56.32" r="0.38"/><circle class="cls-4" cx="222.84" cy="58.85" r="0.38"/><circle class="cls-6" cx="191.33" cy="94.16" r="0.38"/><circle class="cls-6" cx="189.03" cy="93.11" r="0.38"/><circle class="cls-6" cx="186.46" cy="91.44" r="0.38"/><circle class="cls-6" cx="183.87" cy="89.68" r="0.38"/><circle class="cls-6" cx="181.5" cy="87.49" r="0.38"/><circle class="cls-6" cx="188.43" cy="95.63" r="0.38"/><circle class="cls-6" cx="186.13" cy="94.58" r="0.38"/><circle class="cls-6" cx="183.56" cy="92.91" r="0.38"/><circle class="cls-6" cx="180.97" cy="91.15" r="0.38"/><circle class="cls-6" cx="179.2" cy="89.68" r="0.38"/><circle class="cls-6" cx="188.3" cy="99.15" r="0.38"/><circle class="cls-6" cx="186.01" cy="98.11" r="0.38"/><circle class="cls-6" cx="183.43" cy="96.44" r="0.38"/><circle class="cls-6" cx="180.84" cy="94.67" r="0.38"/><circle class="cls-6" cx="178.22" cy="93.11" r="0.38"/><circle class="cls-6" cx="186.24" cy="101.58" r="0.38"/><circle class="cls-6" cx="183.45" cy="100.18" r="0.38"/><circle class="cls-6" cx="180.76" cy="98.68" r="0.38"/><circle class="cls-6" cx="178.05" cy="97.34" r="0.38"/><circle class="cls-6" cx="175.99" cy="95.7" r="0.38"/><circle class="cls-6" cx="185.06" cy="103.9" r="0.38"/><circle class="cls-6" cx="182.21" cy="102.62" r="0.38"/><circle class="cls-6" cx="179.46" cy="101.23" r="0.38"/><circle class="cls-6" cx="176.69" cy="100.01" r="0.38"/><circle class="cls-6" cx="174.57" cy="98.45" r="0.38"/><circle class="cls-6" cx="184.81" cy="106.62" r="0.38"/><circle class="cls-6" cx="181.95" cy="105.34" r="0.38"/><circle class="cls-6" cx="179.2" cy="103.95" r="0.38"/><circle class="cls-6" cx="176.44" cy="102.73" r="0.38"/><circle class="cls-6" cx="173.94" cy="101.6" r="0.38"/><circle class="cls-6" cx="182.7" cy="108.44" r="0.38"/><circle class="cls-6" cx="179.85" cy="107.16" r="0.38"/><circle class="cls-6" cx="177.09" cy="105.77" r="0.38"/><circle class="cls-6" cx="174.33" cy="104.55" r="0.38"/></g></g></svg>