<svg xmlns="http://www.w3.org/2000/svg" viewBox="0 0 49.74 41.28"><defs><style>.cls-1{fill:#72226b;}.cls-2{fill:#f6e0ed;}.cls-3{fill:#b366a9;}</style></defs><title>icon_storm</title><g id="Layer_2" data-name="Layer 2"><g id="sun"><path class="cls-1" d="M38.86,22.06c2.66,3.48,2.7,4.69,1.37,5.09C38.72,27.61,38.12,24.94,38.86,22.06Z"/><path class="cls-1" d="M30,17.48c2.65,3.48,2.69,4.69,1.36,5.09C29.84,23,29.24,20.36,30,17.48Z"/><path class="cls-2" d="M6.36,12.26c1.1-2.69,4.27-3.94,7.07-3.37C12.7,3.75,24.89-6.19,32.82,5.36c5.33-2.94,9.7,1.64,9.45,3.86,3.24,1.52,4.36,5.09,3.53,6.08,3.13,0,6.17,4.77,1.65,6.9,1.2,3.69-3.49,6.52-9.2,4.94-4.09,3.22-9.52.66-10-.34-1.45,1-6.36.72-6.95.07-1.09,1.55-7.29,1.88-9.42-.33-3.11,1.26-10.46-1-9.69-6.09C-1.82,19.33-.28,9.89,6.36,12.26Z"/><polygon class="cls-3" points="12.66 41.28 21.03 29.74 17.56 29.64 21.98 22.94 18.43 22.85 23.1 16.21 17.57 16.06 12.63 24.76 16.34 24.86 13.09 31.76 16.68 31.86 12.66 41.28"/><path class="cls-2" d="M10.33,22.69c.92,3.22,7.58,3.54,10.37.91,7.12,4.1,13.58,1.25,14.14-2.07.27-.68.38-3.59-1.77-4.55.12-3.11-3.79-6.22-10-4.61-5.58-1-8.67.39-10,3.66a4.75,4.75,0,0,0-5.42,2.19A2.81,2.81,0,0,0,10.33,22.69Z"/></g></g></svg>