<svg xmlns="http://www.w3.org/2000/svg" viewBox="0 0 60.37 39.46"><defs><style>.cls-1{fill:#f6e0ed;}.cls-2{fill:#e7c5de;}.cls-3{fill:#d3a2ca;}.cls-4{fill:#b366a9;}</style></defs><title>icon_wind</title><g id="Layer_2" data-name="Layer 2"><g id="sun"><path class="cls-1" d="M7.45,14.36c1.29-3.15,5-4.62,8.27-3.95-.85-6,13.42-17.65,22.71-4.14C44.68,2.83,49.79,8.2,49.5,10.8c3.79,1.78,5.1,6,4.14,7.12,3.65,0,7.21,5.58,1.92,8.08,1.4,4.32-4.08,7.63-10.77,5.78-4.79,3.78-11.15.78-11.69-.39-1.69,1.11-7.44.84-8.14.08-1.28,1.81-8.53,2.2-11-.39C10.3,32.55,1.69,29.87,2.58,23.94-2.13,22.64-.33,11.59,7.45,14.36Z"/><path class="cls-2" d="M10,36.69a23.25,23.25,0,0,1,10.18-4.54,21.25,21.25,0,0,1,11.19,1.56c3.5,1.32,6.7,3.06,10.12,3.85a15.76,15.76,0,0,0,5.21.39,21.65,21.65,0,0,0,5.23-1.25.17.17,0,0,1,.21.09.16.16,0,0,1-.07.2,16,16,0,0,1-5.18,2.14,15.13,15.13,0,0,1-5.73.1c-3.8-.65-7.17-2.37-10.5-3.68A29.51,29.51,0,0,0,25.57,34a18.65,18.65,0,0,0-5.22-.29A28.35,28.35,0,0,0,10.16,37a.17.17,0,0,1-.23-.07A.18.18,0,0,1,10,36.69Z"/><path class="cls-3" d="M20.76,28.54a11.34,11.34,0,0,1,5.33-.75A23.13,23.13,0,0,1,31.34,29c3.38,1.13,6.58,2.56,9.88,3.37a18.34,18.34,0,0,0,9.86,0,30.06,30.06,0,0,0,9-4.8.18.18,0,0,1,.25,0,.19.19,0,0,1,0,.23,20.3,20.3,0,0,1-8.69,6.3,16.45,16.45,0,0,1-5.48.9,21.93,21.93,0,0,1-5.43-.8,89.49,89.49,0,0,1-9.89-3.86A26.26,26.26,0,0,0,26,28.79a11.88,11.88,0,0,0-5.07.09.17.17,0,0,1-.22-.13A.17.17,0,0,1,20.76,28.54Z"/><path class="cls-4" d="M11.5,27a23.25,23.25,0,0,1,10.18-4.54A21.34,21.34,0,0,1,32.87,24c3.5,1.33,6.7,3.06,10.12,3.85a15.76,15.76,0,0,0,5.21.39A20.75,20.75,0,0,0,53.43,27a.16.16,0,0,1,.21.1.16.16,0,0,1-.06.19,16.14,16.14,0,0,1-5.19,2.14,14.93,14.93,0,0,1-5.73.1c-3.8-.65-7.17-2.37-10.5-3.67a30.46,30.46,0,0,0-5.07-1.55,19,19,0,0,0-5.22-.29,28.56,28.56,0,0,0-10.19,3.28.18.18,0,0,1-.18-.3Z"/></g></g></svg>