<svg xmlns="http://www.w3.org/2000/svg" viewBox="0 0 34.21 33.68"><defs><style>.cls-1{fill:#f6e0ed;}.cls-2{fill:#e7c5de;}.cls-3{fill:#d3a2ca;opacity:0.52;}</style></defs><title>icon_sun</title><g id="Layer_2" data-name="Layer 2"><g id="sun"><path class="cls-1" d="M17.23,0C27-.06,36.57,14.19,33.68,23.41,30.35,34,7.06,39.07,1.51,25.27S6.73.06,17.23,0Z"/><path class="cls-2" d="M4.64,11.47C7.77,4.53,21,2.34,26.63,7.39c6.47,5.82,2.47,24-9.14,23.47A14.07,14.07,0,0,1,4.64,11.47Z"/><path class="cls-3" d="M8.83,13.66c2-4.52,10.66-5.94,14.31-2.65,4.22,3.79,1.61,15.62-5.95,15.27A9.16,9.16,0,0,1,8.83,13.66Z"/></g></g></svg>