<svg xmlns="http://www.w3.org/2000/svg" viewBox="0 0 698 442.81"><defs><style>.cls-1{fill:#f9eeea;}</style></defs><title>service_cloud</title><g id="Layer_2" data-name="Layer 2"><g id="bg_cloud" data-name="bg cloud"><path class="cls-1" d="M698,0C538,0,610.67,91.61,445.5,60.5c-223-42-169,132.27-305,139-101,5-134,26-140,53-7,31.54,61.14,39.61,99,44,233,27,321-91,402,0C566.53,369.55,680,374,698,374Z"/><path class="cls-1" d="M410,295c-33.92,2.53-86,8-94,51s52.51,152.44,82,62c15-46,64-32,88-34S477,290,410,295Z"/></g></g></svg>