<svg xmlns="http://www.w3.org/2000/svg" viewBox="0 0 317.31 310.27"><defs><style>.cls-1{fill:#f9eeea;}.cls-2{fill:#fdf2ed;}.cls-3{fill:#72226b;}.cls-4{fill:#d3a2ca;}.cls-5{fill:#3a1b50;}.cls-6{fill:#e16025;}.cls-7{fill:#602164;}.cls-8{fill:#f47920;}.cls-9{fill:#f89c70;}</style></defs><title>soft_landing</title><g id="Layer_2" data-name="Layer 2"><g id="final_design" data-name="final design"><path class="cls-1" d="M28.76,203.6c-13.14,5.94-22.66-5.2-17-19.37s13.69-6.45,12.26.49c-.72,3.48,1.9,7.57,5.18,8.87S35.05,200.76,28.76,203.6Z"/><path class="cls-2" d="M26.61,65.32c31.6-17.8,51.54-19.4,73.15-45.16,27.48-32.75,91.48-28.2,98.55,33,15.32,132.45,74.1,42.21,88.28,134.49,6.42,41.79-22.36,51.23-93.54,77.68-31.34,11.64-85.15,74-129.56,28.6-25.07-25.64,0-90-50.07-151.94A59.22,59.22,0,0,1,0,102.56C.88,81.43,10.83,74.21,26.61,65.32Z"/><rect class="cls-3" x="92.54" y="113.55" width="14.35" height="68.19"/><rect class="cls-3" x="192.61" y="113.55" width="14.35" height="68.19"/><path class="cls-4" d="M79.52,173.6l19.24-7.13c2.08,2.32,3.07,10.25,0,13.88L79.52,195.61Z"/><path class="cls-4" d="M79.52,154.4H98.76c1.63-1.91,2.86-6.88,0-11.23l-19.24-2.52Z"/><path class="cls-4" d="M220.49,175.07l-20-4.91c-2.18,2-1.4,10.12,0,11.14l20,14.31Z"/><path class="cls-4" d="M220.49,137.25l-20,7.1c-3,2.37-1.86,11,0,11.7,1.05.41,20,0,20,0Z"/><path class="cls-4" d="M106.93,144.35h85.73c3.18,0,3.35-10.89,0-11.7H106.93C104.22,133,103.71,143.58,106.93,144.35Z"/><path class="cls-4" d="M107.09,167.75h86.67c2.71-1.09,2.79-9.05,0-11.7H107.09C103.49,157.72,104.35,167,107.09,167.75Z"/><path class="cls-5" d="M106.93,156.05h85.73c3.18,0,3.35-10.89,0-11.7H106.93C104.22,144.75,103.71,155.28,106.93,156.05Z"/><path class="cls-5" d="M106.14,179.46h88c3.26,0,3.44-10.9,0-11.71h-88C103.37,168.15,102.84,178.68,106.14,179.46Z"/><path class="cls-5" d="M200.84,130.86l19.65-9.49v15.88l-20,7.1c-2.53-3.49-2.53-12.2.33-13.49"/><path class="cls-5" d="M220.49,175.07l-20-4.91c-2.52-2-2-13.54,0-14.11h20Z"/><path class="cls-5" d="M79.52,140.65l19.24,2.52c1.71.23,2.52-9.66,0-10.52l-19.24-7Z"/><path class="cls-5" d="M79.52,173.6l19.24-7.13c2.94-1.09,1.68-11.3,0-12.07H79.52Z"/><path class="cls-6" d="M220.49,204.77h26.89c0-3.13,1.58-70.37,0-109.32H220.49C218.48,113.55,219.08,202.21,220.49,204.77Z"/><path class="cls-6" d="M54.1,204.77H79.18c2.28-4.55,1.84-95.08,0-109.32H54.1C51.68,123.5,54.1,204.77,54.1,204.77Z"/><path class="cls-7" d="M239.51,66.13c14.59,21,26.1,47.57,10.31,42.26-13.54-4.55-19.51-5-31.36-.68-24.6,9,3.59-35.75,8.79-41.58C231.19,61.71,235.88,60.9,239.51,66.13Z"/><path class="cls-7" d="M73.63,66.13c14.59,21,26.1,47.57,10.3,42.26-13.54-4.55-19.51-5-31.36-.68-24.59,9,3.6-35.75,8.8-41.58C65.3,61.71,70,60.9,73.63,66.13Z"/><path class="cls-8" d="M102.85,98.45c7,10.11,12.55,22.86,5,20.31-6.51-2.19-9.38-2.41-15.07-.33-11.82,4.31,1.73-17.18,4.22-20C98.86,96.33,101.11,95.94,102.85,98.45Z"/><path class="cls-8" d="M202.9,99.63c7,10.11,12.54,22.86,4.95,20.31-6.5-2.19-9.37-2.41-15.07-.33-11.81,4.31,1.73-17.18,4.23-20C198.9,97.51,201.16,97.12,202.9,99.63Z"/><path class="cls-6" d="M133.82,197.63l9.41-18.17c1.76-1.18,14.2-1.4,16.5,0l4.58,18.17Z"/><path class="cls-6" d="M77,197.63l22.62-18.17c4.48-3.15,19.14-1,20.76,0l-16.51,18.17Z"/><path class="cls-9" d="M103.86,197.63l16.51-18.17c3.94-3.12,23.21-1.65,22.86,0-.16.75-9.41,18.17-9.41,18.17Z"/><path class="cls-9" d="M164.31,197.63l-4.58-18.17c1.92-1.72,19.79-1.6,22.05,0L194,197.63Z"/><path class="cls-6" d="M223.36,197.7,194,197.63l-12.17-18.17c3.06-2.21,15.78-2.28,16.87,0"/><path class="cls-3" d="M249.51,201.3v11.18H49V201.14A5.27,5.27,0,0,1,54,195.88c29.13-1.72,160.83-2,190.39-.08A5.51,5.51,0,0,1,249.51,201.3Z"/><path class="cls-4" d="M44.27,210.59H246.93c-1-2.46-5-5.82-8.29-6.51L52.77,204C47.34,205.36,44.27,210.59,44.27,210.59Z"/><path class="cls-5" d="M256.29,217.89H32.64c0-1.56,6.19-6.12,11.63-7.3H246.93C252.08,211.61,255.21,216.15,256.29,217.89Z"/><path class="cls-4" d="M41.62,227.73H246.93c9.3,0,12.89-1.85,16.1-5.17-1.06-1.84-3.1-3.13-6.74-4.67H32.64c-3.11,0-5.89,2.24-7.53,4.67C26.62,226.48,32.12,227.73,41.62,227.73Z"/><path class="cls-5" d="M264,227.06a9,9,0,0,0-1-4.5c-3.21,3.32-6.8,5.17-16.1,5.17H41.62c-9.5,0-15-1.25-16.51-5.17a8.42,8.42,0,0,0-1.55,3.84,79.4,79.4,0,0,0,0,11c.42,6.43,11.83,8.09,15.14,8.51s91.47,1.86,106.55,1.86,95.89-.94,103.22-1.06,15.12-5.55,15.57-10.08C264,236.62,264.14,231.84,264,227.06Z"/><path class="cls-1" d="M309.64,200.89c12.51,7.16,9.07,21.41-5.7,25.18s-13.25-7.32-6.78-10.23c3.23-1.45,5-6,4.14-9.39C300.4,202.88,303.65,197.46,309.64,200.89Z"/></g></g></svg>