<svg xmlns="http://www.w3.org/2000/svg" viewBox="0 0 553.21 729.18"><defs><style>.cls-1{fill:#e16025;}.cls-2{fill:#f3b7a1;}.cls-3{fill:#f4c3b0;}.cls-4{fill:#f6862d;}.cls-5{fill:#fbba87;}.cls-6{fill:#f9a563;}.cls-7{fill:#f79238;}.cls-8{fill:#f47c20;}.cls-9{fill:#f26a21;}.cls-10{fill:#d75a26;}.cls-11{fill:#b64d26;}.cls-12{fill:#8e3e1e;}.cls-13{fill:#693113;}.cls-14,.cls-15{fill:none;stroke-linecap:round;stroke-linejoin:round;}.cls-14{stroke:#d3a2ca;}.cls-15{stroke:#9e4198;stroke-width:1.5px;}.cls-16{fill:#72226b;}.cls-17,.cls-18{fill:#3a1b50;}.cls-18{stroke:#3a1b50;stroke-miterlimit:10;}.cls-19{fill:#9e4198;}.cls-20{fill:#cc5624;}.cls-21{fill:#5e2a0c;}.cls-22{fill:#ab4822;}.cls-23{fill:#84391a;}.cls-24{fill:#e66420;}.cls-25{fill:#ec9d5e;}.cls-26{fill:#eeb180;}.cls-27{fill:#e7761e;}.cls-28{fill:#ea8a35;}.cls-29{fill:#602164;}</style></defs><title>subscription_balloon</title><g id="Layer_2" data-name="Layer 2"><g id="waving_girl" data-name="waving girl"><path class="cls-1" d="M252.2,636.32c3.51-.26,8.52-.13,8.74,4.42.08,1.64-1,2.77-.32,4.86s.62,3.35-.25,5.87c-.7,2,1.54,5.79-.55,7.61-.36.32-13.4.57-13.4.57s-2.75-.6-1.29-5.77,1.15-6.73.25-9.47C244.28,641.09,247,636.71,252.2,636.32Z" transform="translate(-0.25)"/><path class="cls-2" d="M255.49,651.79c0,2.09.17,5.93,3.25,6.6s2.77,3.11,2.77,3.11l-17.49.67c-.07-3.27,2.23-3.81,3.52-4.15s3-2,2.61-6Z" transform="translate(-0.25)"/><path class="cls-3" d="M258.18,640.48c.41,3,1,12.91-4.93,13.09-6.75.2-5.55-11.36-5.51-12.69C247.86,637.08,257.5,635.41,258.18,640.48Z" transform="translate(-0.25)"/><path class="cls-1" d="M254.5,639.15c.31,2,3.14,4.71,4.56,4.67,1.09,0-.87-6.26-.87-6.26l-5.57-.85-5.72,2.54-1,5.64C248.12,644.19,254.53,642.5,254.5,639.15Z" transform="translate(-0.25)"/><path class="cls-3" d="M265.61,665.1a36.65,36.65,0,0,1,1.18,5.95c0,.72-4.63,1.9-5,.79-.24-.85-1.08-5.41-.78-5.82S265.61,665.1,265.61,665.1Z" transform="translate(-0.25)"/><path class="cls-3" d="M240.56,665.19c-3.18,1-5.15,2.62-6.61.57-3-4.18-3.8-11.25-5.11-12.84-.73-.89-2.8-4.34-2.07-5.72a1.76,1.76,0,0,1,2.35-.4c1.18,1.06,1.45,3,1.78,3.54.07-2.57.86-2.49,1.12.19s-.62.83,1.88,6.86c.82,2,1.55,3.76,2.44,4.64,1.25-.1,2.22-.94,3.43-1.26A41.4,41.4,0,0,1,240.56,665.19Z" transform="translate(-0.25)"/><path class="cls-4" d="M261.08,673.16l-.22-5.87c.22,1.33,5.18-1,5.31-1.51s-1.74-5.81-2.94-6.59a12.31,12.31,0,0,0-6.3-1.83,4.14,4.14,0,0,1-4,3,4,4,0,0,1-4.15-3.15,25.5,25.5,0,0,0-9.3,2.84c-.93.47-.4,6.31,1.46,5.64s2.36-.76,2.26.26-.25,6.76-.25,6.76Z" transform="translate(-0.25)"/><path class="cls-5" d="M277.12,6.34c192.06-.2,277.6,96.64,276.33,228.9S381.38,517.49,364.72,526.57a146.21,146.21,0,0,0-14.55-2.88c40.09-37.92,88.17-83.07,124.58-132.71C587.5,237.27,550.36,23.93,277.12,6.34Z" transform="translate(-0.25)"/><path class="cls-6" d="M277.12,6.34C550.36,23.93,587.5,237.27,474.75,391c-36.41,49.64-84.49,94.79-124.58,132.71-5.76-.88-12.27-1.63-19.31-2.24,43.68-52.58,92.81-101.91,122-158.37C532.86,208.75,469.71,46.09,277.12,6.34Z" transform="translate(-0.25)"/><path class="cls-7" d="M277.12,6.34C469.71,46.09,532.86,208.75,452.9,363.08c-29.23,56.46-78.36,105.79-122,158.37-6.8-.59-14.13-1-21.79-1.32v-.24c22.27-29.94,48.71-63.55,65-100.47C444.87,259.32,413.77,50.42,277.12,6.34Z" transform="translate(-0.25)"/><path class="cls-8" d="M277.12,6.34c136.65,44.08,167.75,253,97,413.08-16.31,36.92-42.75,70.53-65,100.47v.24c-5.95-.22-12.13-.36-18.44-.37C329.69,417.82,355.36,140,277.12,6.34Z" transform="translate(-0.25)"/><path class="cls-9" d="M277.12,6.34C355.36,140,329.69,417.82,290.63,519.76c-8.71,0-17.68.1-26.69.49C224.89,418.32,198.88,140,277.12,6.34Z" transform="translate(-0.25)"/><path class="cls-10" d="M263.94,520.25q-8.6.36-17.18,1c-20.6-29.64-43.36-55.06-58.89-86.89-79-162-51.28-382.69,89.25-428C198.88,140,224.89,418.32,263.94,520.25Z" transform="translate(-0.25)"/><path class="cls-11" d="M246.76,521.25c-6.71.51-13.38,1.14-19.9,1.92-43.67-52.59-96.48-103.48-125.42-160.09C30.31,224,81.32,37.73,277.12,6.34c-140.53,45.33-168.29,266.05-89.25,428C203.4,466.19,226.16,491.61,246.76,521.25Z" transform="translate(-0.25)"/><path class="cls-12" d="M226.86,523.17c-6.58.78-13,1.71-19.22,2.78C167.55,488,116,440.62,79.59,391-33.16,237.27,20.12,22.54,277.12,6.34,81.32,37.73,30.31,224,101.44,363.08,130.38,419.69,183.19,470.58,226.86,523.17Z" transform="translate(-0.25)"/><path class="cls-13" d="M207.64,526c-5.36.93-10.56,2-15.53,3.13C176.51,517.94,1.54,366.22.27,241.6S77.36,6.55,277.12,6.34C20.12,22.54-33.16,237.27,79.59,391,116,440.62,167.55,488,207.64,526Z" transform="translate(-0.25)"/><polyline class="cls-14" points="325.7 563.52 293.91 622.43 313.02 565.31"/><line class="cls-14" x1="338.17" y1="560.36" x2="293.91" y2="622.43"/><polyline class="cls-14" points="235.87 563.76 260.55 622.43 220.22 560.36"/><line class="cls-14" x1="246.09" y1="565.31" x2="260.55" y2="622.43"/><polyline class="cls-15" points="315.73 670.61 293.91 622.43 260.55 622.43 242.59 670.61"/><path class="cls-16" d="M302.42,8.29c-22.62,3.13-42.33,2-52.2-.21S260.15.3,276.23,0,316.54,6.34,302.42,8.29Z" transform="translate(-0.25)"/><rect class="cls-17" x="234.16" y="670.61" width="89.63" height="3.53" rx="1.04"/><path class="cls-18" d="M338.42,560.36c-.27,6.38-113.7,6.82-118,0s46.42-12,59-12C313.24,548.37,338.64,555.41,338.42,560.36Z" transform="translate(-0.25)"/><path class="cls-19" d="M310.88,674.14H238.19v50.23a4.82,4.82,0,0,0,4.81,4.81h17.8C291.69,724.77,308.48,703.38,310.88,674.14Z" transform="translate(-0.25)"/><path class="cls-16" d="M310.88,674.14c-2.4,29.24-19.19,50.63-50.08,55h54.65a4.82,4.82,0,0,0,4.81-4.81V674.14Z" transform="translate(-0.25)"/><path class="cls-20" d="M265.86,520c-6.28.24-12.47.57-18.49,1-.21,7.22,6,21.86,11.05,33.61,3.85-.27,7.8-.49,11.8-.63C269.54,551,264.7,529.4,265.86,520Z" transform="translate(-0.25)"/><path class="cls-21" d="M192.11,529.09c6.16,9.76,16.27,21.59,27.67,31.54a119,119,0,0,1,12.77-3c-15.41-17.24-17.94-19.85-25.19-32.07A126.69,126.69,0,0,0,192.11,529.09Z" transform="translate(-0.25)"/><path class="cls-22" d="M247.37,521c-6.74.46-13.26,1-19.4,1.7,2.57,10.31,12.18,27,18.55,33,3.81-.42,7.8-.77,11.9-1.06C253.34,542.83,247.16,528.19,247.37,521Z" transform="translate(-0.25)"/><path class="cls-23" d="M228,522.67c-7.53.82-14.49,1.78-20.61,2.87,7.25,12.22,9.78,14.83,25.19,32.07,4.26-.76,9-1.42,14-2C240.15,549.7,230.54,533,228,522.67Z" transform="translate(-0.25)"/><path class="cls-24" d="M288.92,519.51c-7.68,0-15.43.18-23.06.47-1.16,9.42,3.68,31,4.36,34,5.19-.19,10.45-.26,15.68-.21C286.68,550.68,290.8,533.57,288.92,519.51Z" transform="translate(-0.25)"/><path class="cls-25" d="M349.6,523.29c-5.47-.88-11.51-1.6-17.94-2.16-.77,15.34-12.72,32-14.64,34.55a128.7,128.7,0,0,1,14.85,2.72C334.27,555.92,350,539,349.6,523.29Z" transform="translate(-0.25)"/><path class="cls-26" d="M364.73,526.57a120.24,120.24,0,0,0-15.13-3.28c.43,15.71-15.33,32.63-17.73,35.11,2.35.59,4.56,1.24,6.55,2C338.42,560.36,362.6,534.83,364.73,526.57Z" transform="translate(-0.25)"/><path class="cls-27" d="M309,519.81c-6.56-.22-13.31-.31-20.12-.3,1.88,14.06-2.24,31.17-3,34.23,5.1,0,10.16.2,15.08.48C302.24,551.46,309.94,533.93,309,519.81Z" transform="translate(-0.25)"/><path class="cls-28" d="M309,519.81c.9,14.12-6.8,31.65-8.06,34.41,5.59.32,11,.8,16,1.46,1.92-2.58,13.87-19.21,14.64-34.55C324.53,520.51,316.92,520.08,309,519.81Z" transform="translate(-0.25)"/><circle class="cls-29" cx="239.12" cy="232.49" r="1.24"/></g></g></svg>