<svg xmlns="http://www.w3.org/2000/svg" viewBox="0 0 282.21 228.47"><defs><style>.cls-1{fill:#f9eeea;}.cls-2{fill:#fff;}.cls-3{fill:#f9d9cf;}.cls-4{fill:#f1f2f2;}.cls-5{fill:#e16025;}.cls-6{fill:#602164;}</style></defs><title>urgent_business</title><g id="Layer_2" data-name="Layer 2"><g id="final_design" data-name="final design"><path class="cls-1" d="M31.55,199.86c-14.26-26.05,14-49.57,4.55-83.09-9.9-35.3-16.72-99.61,50.29-89,73,11.6,43.88-37.29,120.88-26.14,34.87,5.05,53.26,30.68,38.29,88.83-8,31.2,62.34,80.26,21.74,113.72-27.24,22.46-76.83-22-142.28,13.11C79.47,241.74,43.41,221.54,31.55,199.86Z"/><path class="cls-2" d="M84,128.46c4-9.66,15.37-14.19,25.42-12.12-2.63-18.48,41.21-54.22,69.74-12.71,19.18-10.56,34.88,5.91,34,13.89,11.63,5.49,15.66,18.33,12.71,21.87,11.23,0,22.16,17.14,5.91,24.83,4.3,13.26-12.54,23.44-33.09,17.76-14.71,11.58-34.23,2.37-35.89-1.22-5.2,3.43-22.85,2.59-25,.24-3.91,5.56-26.2,6.76-33.87-1.17-11.16,4.5-37.59-3.72-34.85-21.93C54.62,153.9,60.16,120,84,128.46Z"/><path class="cls-3" d="M187.5,121.8c21.56-9.31,39.41,4.83,38.39,17.59a4.34,4.34,0,0,0,.88-2.31c1.31-6.88-6.59-16.94-13.59-19.56C202.75,113.62,192.26,117.31,187.5,121.8Z"/><path class="cls-4" d="M164.32,89.1c-15-8.51-44.55-.7-51.32,24.06a14.75,14.75,0,0,0-.43,3.83l-3.28-.64C105.76,104.2,135.23,72.21,164.32,89.1Z"/><path class="cls-3" d="M167.3,118.2c9-10.59,29.85-16.41,39.12-2.33,3.82,5.81,6.77,2.58,6.76,1.65,0-13.71-20.33-22.63-34-13.89-5.83,3.73-7.49,6.25-13,13.85Z"/><path class="cls-5" d="M97.09,63.35h15.76a5,5,0,0,0,5-4.71L121,11H95.1V61.36A2,2,0,0,0,97.09,63.35Z"/><rect class="cls-6" x="92.81" y="2.75" width="30.44" height="8.2" rx="2.5" transform="translate(216.06 13.7) rotate(-180)"/><path class="cls-5" d="M106.66,1.48h5.62a0,0,0,0,1,0,0V2a.77.77,0,0,1-.77.77h-4.08a.77.77,0,0,1-.77-.77V1.48a0,0,0,0,1,0,0Z" transform="translate(218.93 4.23) rotate(-180)"/><rect class="cls-5" x="123.25" y="65.49" width="67.04" height="7.06" rx="2.16" transform="translate(313.53 138.05) rotate(180)"/><path class="cls-6" d="M113.74,63.35H96.33A1.48,1.48,0,0,0,95,65.44c4.55,10.17,14.74,22.5,19.77,27.06a7.21,7.21,0,0,1,2.33,6c-.76,8.67-5.83,20-5,31.52h68.46a1.58,1.58,0,0,0,1.23-2.59,141.81,141.81,0,0,1-10.76-16,7.54,7.54,0,0,1-.2-7.39c5-9.46,12.58-17.31,20.21-25.76,4.67-5.17,3.43-8.89.15-8.89H119.43l-4.21-5.36A1.88,1.88,0,0,0,113.74,63.35Z"/><path class="cls-2" d="M119.12,142.54c3.42,7.28,19.33,5.48,24.93-1.85,18.47,7,32.68-2.27,32.72-10.38.36-1.71-.5-8.64-6-10.1-.91-7.4-11.37-13.25-25.59-7-13.6-.11-20.41,4.29-22.32,12.55,0,0-8.13-1.4-12,7.31C108,139.57,113.82,144.07,119.12,142.54Z"/><path class="cls-3" d="M176.77,130.31c-.15-6.12-2.14-9.33-6-10.1,0-4.45-6.15-11.16-17.07-9.48,4.62-.22,10.18,1.08,10.58,5.72,4,.54,6.15,5.09,5,7.53C176,123.5,176.77,130.31,176.77,130.31Z"/><path class="cls-3" d="M110.8,133a6.64,6.64,0,0,1,1.49-3.61,10.15,10.15,0,0,1,3-2.54,10,10,0,0,1,3.73-1.17,16.46,16.46,0,0,1,3.84,0h0l-.06,0a24,24,0,0,1,1.4-4.16,10.94,10.94,0,0,1,2.61-3.68,13.87,13.87,0,0,1,3.76-2.44,14.15,14.15,0,0,1,4.26-1.18l.08.22c-1.22.83-2.42,1.56-3.58,2.33a29.62,29.62,0,0,0-3.25,2.48,29.17,29.17,0,0,0-2.9,2.88,14.77,14.77,0,0,0-2.25,3.59l0,0h0a16,16,0,0,0-3.61.83,23.67,23.67,0,0,0-3.27,1.49,13.56,13.56,0,0,0-2.87,2.06,10.77,10.77,0,0,0-2.16,2.88Z"/><path class="cls-1" d="M262.25,88.84c12.38-7.38,23.1,2.62,19.12,17.33s-12.88,8-12.24.89c.33-3.53-2.74-7.3-6.14-8.23C259.44,97.87,256.32,92.37,262.25,88.84Z"/><path class="cls-1" d="M14.06,196.12c-14.41.35-18.83-13.63-8.14-24.49S21.05,171,17,176.87c-2,2.92-1.2,7.71,1.31,10.19S21,196,14.06,196.12Z"/></g></g></svg>